<?xml version="1.0"?>
<svg version="1.1" xmlns="http://www.w3.org/2000/svg" width="627px" height="425px" style=""><path fill="#e3e6e8" d="M294.287109375,322.216796875l0,0.29296875l0-0.29296875q0.5859375,1.171875-2.1240234375,2.5634765625t-2.7099609375,2.8564453125l0,0.5859375q0.29296875,1.7578125,0.29296875,5.419921875q0.29296875,1.171875,0.29296875,3.515625l0,3.662109375q0.29296875,1.171875,0.29296875,6.005859375l0,1.7578125q1.025390625,2.63671875,1.025390625,7.177734375q0,3.076171875-0.29296875,3.662109375t-0.5126953125,1.904296875t-0.5126953125,1.904296875q0.29296875,0.5859375,0.29296875,1.904296875q0,1.46484375-0.732421875,4.833984375t-0.732421875,4.6875q1.171875-0.5859375,1.46484375-0.5859375q1.318359375,0,1.318359375,1.171875q0,2.197265625-1.904296875,3.076171875q1.318359375-0.87890625,1.904296875-0.87890625q0.87890625,0,0.87890625,1.46484375t-1.171875,3.22265625q-1.904296875,2.490234375-1.904296875,3.369140625q0,1.904296875-1.46484375,2.9296875q-0.439453125,0.146484375-1.904296875,1.0986328125t-2.63671875,1.0986328125q-3.515625,0.5859375-6.298828125,0.5859375q-1.025390625,0-3.1494140625-0.146484375t-3.1494140625-0.146484375q-0.5859375-0.29296875-2.05078125-0.29296875l-2.05078125,0q-0.439453125,0-1.6845703125,0.29296875t-1.6845703125,0.29296875l-0.5859375,0q-0.5859375-0.29296875-1.46484375-0.29296875q-0.5859375,0-1.7578125,0.29296875t-1.611328125,0.29296875q-0.29296875,0-0.6591796875-0.146484375t-0.5126953125-0.146484375q-1.7578125-0.5859375-2.34375-0.5859375q-0.439453125,0-1.318359375,0.146484375t-1.7578125,0.146484375q-2.197265625,0.87890625-5.126953125,0.87890625q-1.7578125,0-4.6875-0.5859375q-1.7578125,0.5859375-4.833984375,0.5859375l-0.87890625,0l-2.783203125,0q-2.34375,0-3.22265625-0.87890625l-0.5859375,0q-0.5859375,0-2.1240234375,0.439453125t-2.1240234375,0.439453125q-0.439453125,0-0.9521484375-0.29296875t-0.8056640625-0.29296875q-0.87890625,0.29296875-2.490234375,0.29296875q-3.369140625,0-10.693359375-1.171875q-1.171875,0.5859375-2.783203125,0.5859375q-0.5859375,0-1.7578125-0.5859375l-0.5859375,0q-0.29296875,0-0.5859375-0.146484375t-0.5859375-0.146484375q-0.439453125,0.29296875-1.025390625,0.5859375l-1.171875,0.5859375q-1.318359375,0.5859375-2.05078125,0.5859375l-2.34375,0q-1.611328125,0-2.490234375,0.29296875l-0.87890625,0q-0.87890625,0-2.05078125-0.5859375q-0.5859375,0.5859375-2.197265625,0.5859375t-2.9296875-0.87890625q-1.318359375,0-3.515625-0.5126953125t-3.076171875-0.6591796875q-1.46484375-0.29296875-4.833984375-0.29296875q-0.439453125,0.146484375-2.05078125,0.6591796875t-2.490234375,0.5126953125l-0.5859375,0q-2.9296875-0.87890625-8.935546875-0.87890625q-0.29296875,0-0.8056640625,0.146484375t-0.6591796875,0.146484375l-0.732421875,0l-1.171875-0.5859375q-0.87890625,0.87890625-2.05078125,0.87890625l-2.05078125,0l-1.318359375,0q-2.490234375,1.46484375-5.2734375,1.46484375q-0.5859375,0-2.34375-0.146484375t-3.076171875-0.146484375q-0.439453125,0-1.2451171875-0.146484375t-1.2451171875-0.146484375l-0.87890625,0q-0.146484375,0-0.5126953125,0.146484375t-0.6591796875,0.146484375q-1.171875,0-2.05078125-0.87890625l-0.5859375,0q-0.439453125,0-1.318359375-0.146484375t-1.171875-0.146484375q-0.5859375,0.29296875-2.34375,0.29296875q-1.318359375,0-7.470703125-0.87890625q-0.87890625,0.29296875-3.369140625,0.29296875q-2.05078125,0-2.63671875-0.5859375q-2.34375,0.5859375-3.369140625,0.5859375q-0.5859375,0.146484375-2.5634765625,0.87890625t-2.8564453125,0.87890625q-0.5859375,0.29296875-1.46484375,0.29296875q-0.732421875,0-2.05078125-0.439453125t-1.904296875-0.439453125q-0.146484375,0-0.439453125,0.146484375t-0.439453125,0.146484375t-0.5859375,0.146484375t-0.5859375,0.146484375q-0.5859375,0-1.46484375-0.29296875t-1.46484375-0.29296875q-0.146484375,0-1.0986328125,0.146484375t-1.0986328125,0.146484375q-0.87890625-0.29296875-2.7099609375-0.3662109375t-2.4169921875-0.2197265625q-5.712890625-1.318359375-5.712890625-4.248046875q0-0.87890625,0.29296875-1.46484375l0-0.5859375q0-0.5859375,0.3662109375-1.8310546875t0.3662109375-1.8310546875q0-0.87890625-0.29296875-1.171875q-1.025390625-1.025390625-1.025390625-1.7578125q0-0.29296875,1.025390625-3.369140625q0.87890625-2.63671875,0.87890625-5.712890625q0-0.5859375-0.146484375-1.7578125t-0.146484375-1.7578125q-1.7578125,1.171875-2.783203125,1.171875l-0.29296875,0q0-1.611328125,1.7578125-2.05078125q-0.732421875-0.732421875-1.46484375-0.732421875l-0.5859375,0q0.146484375,0,1.2451171875-0.439453125t1.46484375-0.8056640625t0.3662109375-1.0986328125q0-1.318359375,1.46484375-2.34375q0.87890625-1.025390625,3.369140625-1.904296875t4.1015625-0.87890625q1.025390625,0,2.783203125,0.29296875t2.63671875,0.29296875l0.87890625,0q0.146484375,0,0.5126953125-0.146484375t0.6591796875-0.146484375q0.5859375,0,1.171875,0.5859375q1.318359375-0.87890625,3.076171875-0.87890625q0.439453125-0.29296875,2.783203125-0.5126953125t4.39453125-0.732421875t2.05078125-1.6845703125q0-0.29296875-0.5859375-1.46484375l-0.29296875-0.732421875q0-0.439453125,0.29296875-0.8056640625t0.87890625-0.732421875t0.732421875-0.5126953125q0.732421875-0.439453125,0.9521484375-1.2451171875t0.8056640625-1.3916015625q-0.29296875-1.46484375-0.29296875-4.833984375q-3.076171875,2.05078125-4.248046875,2.05078125q-0.732421875,0-1.171875-0.87890625l-0.29296875-0.5859375q0-1.611328125,4.248046875-4.833984375q1.7578125-1.46484375,1.7578125-6.298828125q0-1.611328125-0.29296875-4.7607421875t-0.29296875-4.1748046875q-0.146484375-1.318359375-0.6591796875-5.859375t-0.5126953125-7.03125l0-1.46484375q0-1.46484375,0.5859375-4.541015625t0.5859375-4.541015625l-1.171875,0q-3.369140625,0-3.369140625-1.46484375q0-0.732421875,1.46484375-1.7578125q3.076171875-1.025390625,3.369140625-2.197265625q-0.29296875-0.5859375-0.29296875-3.515625q0-0.439453125-0.146484375-1.3916015625t-0.146484375-1.3916015625q0-0.5859375,0.146484375-1.5380859375t0.146484375-1.3916015625l0-0.5859375q0-0.732421875,0.439453125-2.783203125t0.439453125-2.9296875t-0.29296875-1.171875q-0.5859375-1.171875-0.5859375-7.03125q-0.5859375-2.34375-0.5859375-4.39453125l0-1.904296875q0-0.439453125-0.146484375-1.7578125t-0.146484375-2.05078125q0-2.783203125,0.5859375-5.712890625l0-1.7578125q0-3.076171875,0.5859375-5.419921875q-0.5859375-5.2734375-0.5859375-8.7890625q-0.5859375-3.515625-0.5859375-4.98046875l0-0.732421875q0-0.87890625,0.439453125-3.076171875t0.439453125-3.22265625q0-1.171875-0.29296875-1.7578125q-0.5859375-0.87890625-2.783203125-6.005859375q-1.025390625-2.05078125-3.22265625-2.05078125l-2.490234375,0q-3.80859375,0-3.80859375-1.171875q0-0.439453125,0.87890625-1.318359375q-0.732421875,0-2.783203125,0.6591796875t-2.9296875,0.6591796875q-1.904296875,0-2.34375-1.611328125q-0.29296875-0.146484375-1.3916015625,0.439453125t-1.6845703125,0.5859375q-0.732421875,0-1.171875-0.439453125q-0.146484375,0-0.439453125-0.146484375t-0.439453125-0.146484375q-2.197265625,0.732421875-3.369140625,0.732421875q-1.904296875,0-3.22265625-1.318359375q-0.87890625-0.87890625-0.87890625-3.80859375q0-3.80859375,0.87890625-6.005859375q0.29296875-1.7578125,0.29296875-5.712890625l0-2.783203125q-2.490234375,1.611328125-3.369140625,1.611328125l-0.29296875,0q-1.171875-0.439453125-1.171875-1.318359375q0-1.025390625,1.5380859375-2.7099609375t2.1240234375-1.9775390625q0.439453125-0.732421875,0.8056640625-3.369140625t1.3916015625-4.1748046875t3.369140625-0.9521484375l2.490234375,0q1.7578125,0,2.34375,0.29296875q1.025390625-0.732421875,2.8564453125-1.025390625t2.2705078125-0.439453125q3.076171875-0.87890625,6.591796875-0.87890625q2.490234375,0,3.369140625,0.29296875q0.146484375,0.146484375,1.9775390625,0.5126953125t2.1240234375,0.6591796875q0.5859375-0.29296875,2.197265625-0.29296875q1.7578125,0,2.05078125,0.29296875q0.5859375-0.29296875,2.63671875-0.29296875q2.197265625,0,2.783203125-0.29296875q0.87890625-0.29296875,5.126953125-0.29296875q1.318359375,0.146484375,3.5888671875-0.2197265625t3.0029296875-0.3662109375q1.7578125,0,3.515625,0.87890625l0.87890625,0q0.5859375,0,1.7578125,0.29296875t1.611328125,0.29296875q0.146484375,0,0.439453125-0.146484375t0.439453125-0.146484375q1.171875-0.5859375,2.34375-0.5859375q0.29296875,0,0.87890625,0.146484375t0.732421875,0.146484375q2.197265625-0.87890625,6.005859375-0.87890625q2.05078125,0,3.80859375,0.5859375l0.87890625,0q1.318359375,0,3.662109375,0.5859375q2.9296875-0.5859375,4.248046875-0.5859375q0.5859375,0.146484375,1.9775390625,0.439453125t2.7099609375,0.5126953125t2.197265625,0.2197265625q0.146484375,0,0.5859375-0.146484375t0.5859375-0.146484375q0.87890625-0.87890625,2.9296875-0.87890625q2.197265625,0,2.783203125,0.29296875q1.7578125-0.5859375,2.9296875-0.5859375q1.611328125,0,2.783203125,0.5859375q1.171875-0.29296875,3.80859375-0.29296875q1.171875,0,3.8818359375,0.146484375t4.0283203125,0.146484375q3.22265625,0,4.98046875-0.5859375q1.611328125-0.5859375,3.515625,1.171875t1.904296875,3.662109375q0,1.171875-0.29296875,1.46484375q0.29296875,0.5859375,0.29296875,1.7578125q0,1.025390625-0.439453125,3.076171875t-0.439453125,2.9296875q0,0.29296875,0.146484375,0.8056640625t0.146484375,0.8056640625q0.5859375-0.29296875,1.904296875-0.29296875q2.34375,0,2.34375,1.7578125q0,1.611328125-1.46484375,2.63671875q2.05078125,1.025390625,2.05078125,2.783203125q0,0.732421875-0.87890625,1.171875t-1.8310546875,1.6845703125t-2.1240234375,1.8310546875q0.5859375,1.171875,0.5859375,3.076171875q0,2.197265625-1.171875,2.9296875q-3.22265625,1.904296875-5.126953125,1.904296875l-0.87890625,0q-0.732421875,0-2.05078125-0.29296875t-2.05078125-0.29296875t-2.490234375,0.5859375q-0.146484375,0-0.5859375,0.146484375t-0.5859375,0.146484375q-0.5859375,0-1.171875-0.5859375q-0.29296875-0.5859375-0.5859375-0.5859375l-0.87890625,0q-2.9296875,1.46484375-3.662109375,1.46484375q-1.171875,0-1.171875-1.904296875q-2.9296875,1.46484375-6.6650390625,4.1015625t-3.8818359375,4.39453125q2.05078125,0,2.05078125,0.87890625q0,0.732421875-1.611328125,2.490234375l-1.611328125,1.7578125q0,1.318359375-0.8056640625,3.8818359375t-0.9521484375,3.5888671875q0.87890625-0.146484375,1.904296875,0.29296875t1.025390625,1.171875q0,0.87890625-0.5859375,1.171875q-0.146484375,0.439453125-1.171875,0.9521484375t-1.171875,0.9521484375q0.5859375,4.6875,0.5859375,8.056640625q1.171875,2.34375,1.171875,6.005859375q0,3.369140625-1.171875,8.056640625q0.29296875-0.29296875,1.171875-0.29296875q1.7578125,0,1.7578125,1.171875q0,0.29296875-0.5859375,0.87890625q-0.439453125,0.732421875-2.05078125,1.611328125q-0.87890625,0.87890625-0.87890625,1.46484375q0,0.29296875,0.146484375,0.87890625t0.146484375,0.87890625l0,0.5859375q1.171875,3.662109375,1.171875,13.18359375q0.5859375,4.6875,0.5859375,7.32421875q0,6.73828125-1.7578125,16.9921875q0.146484375,0,1.46484375-0.732421875t2.05078125-0.732421875q1.171875,0,1.46484375,1.46484375q0.146484375,0.87890625-0.5126953125,1.9775390625t-1.3916015625,1.8310546875t-1.904296875,1.7578125t-1.46484375,1.318359375q0,0.439453125-0.146484375,1.318359375t-0.146484375,1.171875q0,1.904296875,0.439453125,5.2001953125t0.439453125,4.9072265625q0,2.197265625-0.29296875,3.076171875q0,1.7578125,0.146484375,5.56640625t0.146484375,5.56640625q0,3.955078125-0.29296875,5.712890625q0.29296875,1.46484375,0.29296875,4.98046875l0,1.904296875q0,1.7578125,0.5859375,1.7578125l1.171875,0q1.46484375,0.439453125,1.46484375,1.7578125q0,0.5859375-0.5859375,1.171875q1.46484375,0.732421875,2.490234375,0.732421875q1.46484375,0,4.6142578125-0.8056640625t4.6142578125-0.8056640625q1.7578125,0,2.63671875,0.5859375q0.5859375-0.29296875,2.490234375-0.29296875l2.34375,0q0.87890625,0,2.783203125,0.6591796875t2.63671875,0.6591796875l0.29296875,0q0.439453125,0,1.2451171875-0.439453125t1.0986328125-0.5859375q0.5859375-0.29296875,1.611328125-0.29296875q0.87890625,0,1.171875,0.29296875q1.318359375-0.87890625,2.9296875-0.87890625q0.732421875,0.146484375,2.4169921875-0.0732421875t2.1240234375-0.2197265625q2.197265625,0,3.369140625,1.171875q0.5859375-0.5859375,1.7578125-0.5859375l1.46484375,0q0.87890625,0,1.171875-0.29296875q1.025390625-1.46484375,5.126953125-1.46484375l2.197265625,0q0.87890625,0,2.05078125-0.5859375t2.34375-0.5859375q0.87890625,0,1.46484375,0.29296875q0.439453125-0.29296875,1.0986328125-0.5859375t1.025390625-0.5126953125t0.732421875-0.6591796875t0.5126953125-1.025390625q0.5859375-3.076171875,2.05078125-3.80859375q0.5859375-0.5859375,1.611328125-0.5859375l0.5859375,0q0.5859375,0,0.87890625-0.87890625q0.29296875-0.732421875,1.0986328125-1.611328125t0.9521484375-1.171875q0-1.7578125,3.369140625-6.298828125q0.5859375-0.732421875,1.46484375-2.2705078125t1.46484375-2.2705078125q0.146484375-1.171875,0.5859375-4.98046875t0.87890625-5.712890625l0-0.87890625q0-4.248046875,1.318359375-8.203125q-2.490234375,0.87890625-2.490234375-0.87890625q0-1.171875,1.904296875-5.4931640625t1.46484375-5.0537109375q-0.5859375-1.171875-0.5859375-1.7578125q0-2.490234375,4.6875-4.833984375q0.146484375,0,0.6591796875-0.146484375t0.6591796875-0.146484375q1.171875,0,3.515625,1.171875q0.146484375,0,0.439453125,0.2197265625t0.439453125,0.2197265625q0.439453125,0,1.318359375-0.5126953125t1.46484375-0.8056640625l1.171875,0q0.5859375,0,1.9775390625,0.146484375t1.9775390625,0.146484375q1.171875,0,1.46484375-0.29296875q0.87890625-0.5859375,2.63671875-0.5859375q0.5859375,0,1.9775390625,0.146484375t1.9775390625,0.146484375q4.1015625,0,6.591796875,2.1240234375t2.05078125,5.7861328125q1.46484375-1.025390625,1.904296875-1.025390625q1.46484375,0,1.46484375,1.904296875q0,1.7578125-1.171875,2.9296875q-0.29296875,0.439453125-0.9521484375,1.025390625t-0.9521484375,1.025390625t-0.29296875,1.025390625l0,0.5859375l0,1.171875l0,0.5859375q0,8.203125,0.5859375,11.1328125q0.146484375,0,1.2451171875-0.5859375t1.8310546875-0.5859375q1.025390625,0,1.46484375,0.87890625z M282.568359375,330.2734375q0.146484375,0.29296875-1.0986328125,1.2451171875t-3.1494140625,2.1240234375t-3.7353515625,2.197265625t-3.515625,1.9775390625t-1.9775390625,1.0986328125q-1.171875,0.732421875-3.4423828125,2.2705078125t-4.248046875,2.783203125t-3.7353515625,2.2705078125q-3.22265625,1.611328125-5.419921875,2.34375l-1.171875,0q-1.46484375,1.46484375-3.22265625,2.34375q-1.025390625,0.5859375-1.318359375,0.87890625t-0.3662109375,0.9521484375t-0.5126953125,1.2451171875q1.904296875-0.87890625,12.9638671875-5.56640625t16.4794921875-7.91015625q2.63671875-2.05078125,7.763671875-4.833984375l0-1.171875q0-0.5859375-0.146484375-2.05078125t-0.146484375-2.197265625z M271.728515625,382.71484375l0.732421875-0.5859375q-0.732421875,0.29296875-0.732421875,0.5859375q1.318359375-1.46484375,4.248046875-4.4677734375t4.248046875-4.4677734375q-1.7578125,1.318359375-5.3466796875,4.3212890625t-5.4931640625,4.3212890625l1.171875,0q0.87890625,0,1.171875,0.29296875z M277.1484375,372.607421875q0.439453125-0.439453125,2.05078125-1.3916015625t2.490234375-1.8310546875t0.87890625-1.904296875q-1.7578125,1.46484375-5.419921875,5.126953125z M248.14453125,383.154296875l2.34375-1.611328125q-0.732421875,0-2.34375,1.611328125q18.75-11.71875,23.583984375-14.501953125q1.025390625-0.5859375,3.22265625-1.8310546875t3.955078125-2.1240234375t3.369140625-1.46484375q1.7578125-0.732421875,1.7578125-4.6875l0-3.076171875q-0.5859375-2.34375-0.5859375-5.712890625q0-2.34375,0.29296875-2.9296875q-0.5859375-1.46484375-0.5859375-6.005859375q-8.7890625,6.15234375-32.5927734375,19.775390625t-35.2294921875,22.8515625q6.298828125-3.22265625,12.59765625-6.73828125t13.8427734375-8.056640625t11.865234375-7.177734375t13.623046875-8.5693359375t12.0849609375-7.6904296875q0.5859375-0.29296875,1.171875-0.29296875q0.87890625,0,0.87890625,1.611328125q0,1.7578125-0.87890625,3.515625q-3.369140625,3.955078125-10.25390625,7.763671875q-4.248046875,2.783203125-12.3779296875,7.6904296875t-14.6484375,9.1552734375t-11.9384765625,8.49609375l1.46484375,0l2.783203125,0q1.171875-0.732421875,3.4423828125-2.4169921875t3.4423828125-2.4169921875q2.34375-1.7578125,6.9580078125-5.126953125t7.1044921875-5.126953125q1.025390625-0.732421875,4.541015625-3.1494140625t5.2001953125-3.515625t4.4677734375-2.7099609375t5.2734375-2.63671875q1.7578125-0.5859375,3.369140625-0.5859375q2.197265625,0,2.9296875,1.171875q0.5859375,1.025390625-2.05078125,3.1494140625t-6.2255859375,4.3212890625t-4.0283203125,2.490234375q-15.966796875,10.986328125-21.826171875,16.552734375z M260.44921875,316.50390625q0.29296875-1.171875,1.5380859375-2.8564453125t3.1494140625-3.8818359375t2.490234375-2.9296875q-1.025390625,0.5859375-3.2958984375,1.8310546875t-3.2958984375,1.8310546875q-0.29296875,0.29296875-0.3662109375,3.0029296875t-0.2197265625,3.0029296875z M261.328125,304.4921875q2.05078125-1.46484375,2.34375-1.7578125l-0.5859375,0q-1.171875,0-1.7578125-0.5859375l0,0.87890625l0,1.46484375z M259.5703125,325.146484375l0-0.29296875l0,0.29296875q0-0.439453125,4.9072265625-3.369140625t6.6650390625-3.80859375q0.29296875-0.29296875,1.8310546875-1.0986328125t3.0029296875-1.7578125t3.0029296875-1.9775390625t2.490234375-1.9775390625t0.8056640625-1.5380859375q-0.87890625,0.439453125-5.56640625,3.1494140625t-7.32421875,4.0283203125q-3.22265625,2.05078125-7.763671875,4.541015625q-0.732421875,0.439453125-0.9521484375,0.6591796875t-0.439453125,0.5859375t-0.29296875,0.5126953125t-0.146484375,0.8056640625t-0.2197265625,1.2451171875z M257.958984375,333.349609375l0,0.29296875l0-0.29296875l0,1.171875l18.017578125-15.380859375q-1.904296875,1.171875-5.7861328125,3.4423828125t-5.9326171875,3.4423828125l-5.126953125,3.076171875q-0.439453125,0.146484375-0.6591796875,0.9521484375t-0.29296875,1.904296875t-0.2197265625,1.3916015625z M245.068359375,357.51953125l0.5859375-0.29296875l-0.5859375,0.29296875q-0.146484375,0.146484375-0.29296875,0.5126953125t-0.29296875,0.5126953125l5.126953125-3.076171875q-3.369140625,1.318359375-4.541015625,2.05078125z M220.166015625,364.84375l-0.29296875,0.5859375q0.29296875-0.29296875,0.29296875-0.5859375q-0.5859375,0.5859375-1.611328125,1.7578125t-1.611328125,1.7578125q1.025390625-0.5859375,3.2958984375-1.7578125t3.2958984375-1.7578125q0-0.732421875-1.46484375-0.732421875q-0.439453125,0-1.904296875,0.732421875z M223.2421875,368.06640625l-3.076171875,1.46484375l3.955078125-1.7578125q-0.29296875,0-0.87890625,0.29296875q-0.29296875,0.146484375-2.05078125,1.0986328125t-2.197265625,1.2451171875t-2.05078125,1.171875t-2.1240234375,1.2451171875t-1.904296875,1.171875t-2.05078125,1.318359375t-1.7578125,1.3916015625t-1.8310546875,1.5380859375t-1.611328125,1.5380859375t-1.611328125,1.7578125q8.349609375-4.248046875,36.9140625-21.240234375q-1.025390625,0.439453125-3.8818359375,1.2451171875t-4.3212890625,1.6845703125q-2.05078125,0.87890625-5.56640625,2.7099609375t-3.955078125,2.1240234375z M215.0390625,379.78515625l-1.171875,0.87890625q0.5859375-0.29296875,1.171875-0.87890625l-4.39453125,2.63671875q0.732421875,0.146484375,1.3916015625-0.146484375t1.6845703125-1.318359375t1.318359375-1.171875z M259.130859375,341.11328125l4.541015625-2.783203125q-1.611328125,1.025390625-4.541015625,2.783203125q15.087890625-8.642578125,20.80078125-12.59765625q-3.515625,2.05078125-10.400390625,6.298828125t-10.400390625,6.298828125z M258.837890625,337.744140625q6.298828125-3.80859375,6.298828125-4.1015625q-4.541015625,2.63671875-6.298828125,4.1015625q14.6484375-8.7890625,19.921875-11.71875q0.5859375-0.439453125,1.46484375-0.9521484375t1.318359375-0.8056640625t0.8056640625-0.87890625t0.5126953125-1.46484375l0-3.369140625l0-1.46484375q-3.955078125,3.515625-24.0234375,20.654296875z M276.5625,301.416015625l-0.29296875,0l0.29296875,0.439453125q0.29296875,0,0.29296875-0.439453125l-0.29296875,0q-0.29296875,0.146484375-0.6591796875,0.3662109375t-0.5126953125,0.29296875t-0.3662109375,0.146484375t-0.29296875,0.2197265625t-0.2197265625,0.29296875l-0.3662109375,0.3662109375t-0.3662109375,0.439453125l-0.439453125,0.6591796875q-0.5859375,0.732421875-1.6845703125,2.1240234375t-1.6845703125,2.1240234375q-1.025390625,1.318359375-3.1494140625,4.1748046875t-3.1494140625,4.1748046875q2.197265625-1.171875,4.6875-2.63671875t5.56640625-3.22265625t4.833984375-2.783203125q0.439453125-0.29296875,1.46484375-0.9521484375t1.46484375-0.9521484375q0.5859375-0.29296875,0.5859375-0.87890625l0-1.171875l0-0.5859375q-0.29296875-1.7578125-0.5859375-1.7578125l-1.46484375,0l-1.7578125,0q-1.025390625,0-1.904296875-0.439453125z M208.154296875,365.4296875l-0.87890625,0.5859375q0-0.29296875,0.87890625-0.5859375q-0.146484375,0-0.5859375-0.146484375t-0.5859375-0.146484375q-1.611328125,0-3.22265625,0.9521484375t-3.4423828125,2.63671875t-2.5634765625,2.1240234375q-2.783203125,2.05078125-8.7158203125,5.7861328125t-8.7158203125,5.7861328125q0.5859375,0.439453125,5.712890625-2.9296875q4.248046875-2.63671875,6.884765625-4.541015625q2.63671875-1.7578125,7.6904296875-4.833984375t7.5439453125-4.6875z M189.2578125,364.84375l-0.29296875,0l0.29296875,0q-1.171875,0.5859375-2.34375,0.5859375q-0.439453125,1.611328125-2.05078125,3.22265625q-1.7578125,2.05078125-5.419921875,5.712890625q9.814453125-6.4453125,15.52734375-9.228515625q-0.5859375-0.29296875-1.46484375-0.29296875l-3.076171875,0l-1.171875,0z M165.52734375,382.12890625l3.662109375-2.9296875q-0.29296875,0.146484375-0.6591796875,0.439453125t-1.2451171875,0.9521484375t-1.3916015625,1.0986328125t-0.3662109375,0.439453125q11.865234375-8.935546875,17.138671875-15.52734375q-14.501953125,9.228515625-24.0234375,14.94140625q4.541015625,0,6.884765625,0.5859375z M136.23046875,384.033203125l0.29296875,0l-0.29296875,0q4.98046875-2.9296875,18.310546875-13.623046875q-14.35546875,10.400390625-19.189453125,13.037109375q0.29296875,0.146484375,0.439453125,0.29296875t0.439453125,0.29296875z M104.736328125,382.421875l0.29296875,0l-0.29296875,0q1.171875-0.87890625,4.39453125-2.197265625t3.662109375-1.611328125q2.783203125-1.7578125,13.18359375-7.763671875q3.369140625-1.7578125,9.814453125-5.56640625t9.66796875-5.56640625q-20.068359375,10.107421875-25.1953125,13.18359375q-1.7578125,0.87890625-5.126953125,3.0029296875t-4.98046875,3.0029296875q-3.515625,2.05078125-4.541015625,2.9296875l-1.46484375,0.5859375l0.5859375,0z M126.26953125,351.513671875l5.419921875-4.1015625q-5.419921875,3.80859375-5.419921875,4.1015625q15.8203125-11.572265625,26.3671875-17.578125q3.955078125-2.197265625,10.25390625-6.591796875q1.611328125-1.611328125,2.34375-1.611328125q0.439453125,0.29296875,0.732421875,0.29296875q0-0.439453125,0.146484375-1.171875t0.146484375-1.171875q-0.732421875,1.025390625-3.369140625,2.490234375t-2.9296875,1.7578125q-1.025390625,0.5859375-3.1494140625,1.904296875t-3.1494140625,1.904296875q-2.197265625,1.318359375-6.298828125,4.1015625t-6.298828125,4.1015625q-1.904296875,1.318359375-6.005859375,4.0283203125t-6.005859375,4.0283203125q-5.419921875,3.662109375-6.005859375,4.833984375q1.171875-0.29296875,3.22265625-1.318359375z M169.482421875,363.818359375q-0.29296875,0-0.6591796875-0.146484375t-0.5126953125-0.146484375q-0.29296875,0-0.5126953125,0.2197265625l-0.6591796875,0.6591796875t-0.87890625,0.732421875q-0.87890625,0.5859375-2.5634765625,1.904296875t-2.5634765625,1.904296875q-1.171875,0.87890625-3.5888671875,2.8564453125t-3.5888671875,2.8564453125q1.025390625-0.5859375,7.470703125-4.248046875t9.814453125-5.859375q-0.29296875,0-1.7578125-0.732421875z M177.5390625,365.13671875q-1.7578125,0.439453125-3.955078125,1.904296875t-4.7607421875,3.5888671875t-3.5888671875,2.8564453125q-1.7578125,1.171875-10.986328125,7.763671875q2.783203125-1.7578125,11.3525390625-7.1044921875t13.2568359375-8.4228515625q-0.732421875,0-1.318359375-0.5859375z M166.552734375,356.640625l0-0.29296875l0,0.29296875l0-0.87890625q-0.5859375,0.5859375-1.025390625,0.5859375q0.29296875,0.29296875,1.025390625,0.29296875z M165.966796875,318.84765625l-1.611328125,1.171875q1.611328125-0.87890625,1.611328125-1.171875q-2.05078125,1.46484375-6.0791015625,4.541015625t-6.2255859375,4.541015625l2.63671875-1.7578125q2.63671875-1.904296875,4.98046875-3.22265625t3.662109375-1.318359375q0.439453125,0,1.025390625,0.5859375l0-3.369140625z M164.35546875,328.515625l-0.5859375-0.5859375q0-0.146484375,1.171875,1.171875z M165.966796875,334.228515625l-3.076171875,2.05078125q2.783203125-1.7578125,3.076171875-2.05078125q-1.611328125,1.025390625-9.814453125,6.5185546875t-10.7666015625,7.2509765625t-9.4482421875,6.5185546875t-10.6201171875,7.6904296875t-8.935546875,7.1044921875t-9.5947265625,8.1298828125q16.259765625-10.25390625,48.33984375-25.927734375q0.87890625-0.439453125,4.833984375-2.490234375t6.298828125-2.783203125q0-0.29296875,0.146484375-0.9521484375t0.146484375-0.9521484375q0-1.171875-0.5126953125-3.8818359375t-0.5126953125-3.8818359375q0-1.025390625,0.439453125-2.34375z M131.396484375,382.421875l1.46484375-0.87890625q-0.5859375,0-1.46484375,0.87890625q3.662109375-1.904296875,9.9609375-6.298828125q-1.611328125,1.025390625-4.9072265625,3.1494140625t-5.0537109375,3.1494140625z M118.798828125,382.12890625q1.611328125,0,3.7353515625-1.171875t4.6875-3.076171875t3.2958984375-2.34375q1.7578125-1.171875,5.419921875-3.4423828125t5.419921875-3.4423828125q-12.451171875,7.177734375-12.890625,7.470703125q-0.732421875,0.439453125-2.9296875,2.05078125t-4.1015625,2.783203125t-2.63671875,1.171875z M152.63671875,378.61328125q-3.22265625,2.197265625-8.056640625,4.833984375q1.318359375-0.29296875,2.5634765625-1.025390625t3.076171875-2.05078125t2.4169921875-1.7578125z M142.822265625,324.267578125q0.5859375-0.439453125,3.515625-1.9775390625t6.298828125-3.369140625t6.73828125-3.80859375t5.3466796875-3.662109375t1.5380859375-2.4169921875q-3.955078125,2.63671875-11.7919921875,7.6904296875t-11.6455078125,7.5439453125z M167.431640625,291.6015625l0,0.29296875l0-0.29296875l-0.5859375,0.5859375q0.29296875,0,0.5859375,0.29296875l0-0.87890625z M166.845703125,278.7109375l-1.904296875,1.46484375q1.904296875-1.171875,1.904296875-1.46484375q-2.490234375,1.904296875-13.18359375,9.4482421875t-16.259765625,12.0849609375q-0.5859375,0.439453125-2.5634765625,2.1240234375t-2.8564453125,2.490234375t-2.34375,2.2705078125t-2.490234375,2.783203125t-1.7578125,2.63671875q6.73828125-5.2734375,27.24609375-16.69921875q1.46484375-0.87890625,4.541015625-2.5634765625t4.541015625-2.5634765625q5.419921875-2.197265625,5.712890625-3.369140625q-0.29296875-1.318359375-0.3662109375-4.541015625t-0.2197265625-4.1015625z M123.6328125,319.140625l0.87890625-0.29296875q-0.87890625,0-0.87890625,0.29296875q1.7578125-0.146484375,4.1015625-1.0986328125t3.369140625-1.5380859375t4.1015625-2.63671875l3.076171875-1.904296875q15.380859375-10.546875,22.265625-15.8203125q-16.552734375,10.83984375-28.271484375,16.9921875q-0.87890625,0.439453125-3.22265625,1.46484375t-3.7353515625,2.05078125t-1.6845703125,2.490234375z M122.75390625,311.083984375l0.5859375-0.87890625l-0.5859375,0.87890625q1.904296875-3.076171875,8.056640625-8.642578125q-0.5859375,0.29296875-2.63671875,0.8056640625t-3.5888671875,1.171875t-1.8310546875,1.2451171875l0,0.87890625q0,0.439453125-0.146484375,1.5380859375t-0.146484375,1.5380859375q0,0.87890625,0.29296875,1.46484375z M124.21875,327.9296875q5.419921875-4.833984375,16.845703125-14.501953125q-9.66796875,6.298828125-14.501953125,7.91015625q-0.5859375,0.29296875-1.2451171875,0.439453125t-0.87890625,0.29296875t-0.3662109375,0.5126953125t-0.146484375,1.0986328125q0.29296875,0.5859375,0.29296875,2.05078125l0,2.197265625z M167.138671875,295.1171875q-33.544921875,28.564453125-41.455078125,35.44921875q14.501953125-9.66796875,32.666015625-20.361328125q1.171875-0.732421875,3.5888671875-2.2705078125t3.5888671875-2.2705078125q0.439453125-0.29296875,0.5859375-1.6845703125t0.439453125-1.8310546875q0.29296875-0.87890625,0.3662109375-3.662109375t0.2197265625-3.369140625z M166.259765625,270.947265625q0.146484375,0.29296875-4.541015625,3.7353515625t-9.9609375,7.177734375t-5.712890625,4.0283203125q-2.34375,1.611328125-20.947265625,15.52734375q6.73828125-2.05078125,19.482421875-10.400390625q3.369140625-2.34375,9.0087890625-6.591796875t7.2509765625-5.419921875q5.56640625-3.369140625,5.712890625-4.541015625q0-0.439453125-0.146484375-1.7578125t-0.146484375-1.7578125z M175.78125,189.35546875l0.29296875,0l-0.29296875,0q-1.025390625-0.146484375-2.63671875,0.8056640625t-3.5888671875,2.7099609375t-2.4169921875,2.05078125q5.126953125-3.076171875,9.814453125-5.56640625q0-0.439453125-0.5859375-0.439453125q-0.29296875,0.146484375-0.5859375,0.439453125z M169.775390625,188.916015625l-0.5859375,0.439453125l0.5859375-0.439453125q-6.884765625,3.80859375-14.4287109375,8.642578125t-16.7724609375,11.1328125t-14.0625,9.375l-0.732421875,0.3662109375t-0.6591796875,0.29296875t-0.439453125,0.2197265625t-0.29296875,0.2197265625t-0.146484375,0.2197265625t-0.0732421875,0.439453125q0,0.732421875,0.29296875,1.318359375q1.171875,2.34375,1.171875,4.1015625q0.29296875,0.87890625,0.29296875,2.783203125q0,1.318359375-0.29296875,4.248046875t-0.29296875,4.1015625q10.25390625-8.056640625,30.8349609375-23.9501953125t30.6884765625-23.8037109375q-7.470703125,2.783203125-22.265625,12.59765625q-4.541015625,3.076171875-13.76953125,9.375t-13.76953125,9.521484375q-0.146484375,0.146484375-1.5380859375,1.2451171875t-2.05078125,1.5380859375t-1.9775390625,1.2451171875t-2.34375,1.171875t-2.05078125,0.5126953125q-1.7578125,0-1.7578125-0.5859375q0-0.732421875,1.318359375-2.1240234375t1.904296875-1.6845703125q34.86328125-25.78125,44.091796875-32.8125q-0.29296875,0.29296875-0.87890625,0.29296875z M210.3515625,203.41796875l0,0.29296875l0-0.29296875z M210.9375,204.00390625l-0.29296875-0.29296875q0.29296875,0,0.29296875,0.29296875z M200.9765625,193.45703125l0,0.29296875l0-0.29296875q0-0.439453125-8.7890625,4.1015625t-10.400390625,5.56640625q-13.4765625,7.470703125-28.41796875,17.28515625q-19.775390625,12.890625-25.634765625,16.845703125q-0.732421875,0.439453125-2.05078125,1.3916015625t-2.05078125,1.3916015625q0,0.29296875,0.146484375,1.2451171875t0.146484375,1.3916015625l0,0.5859375q0.5859375,1.7578125,0.5859375,3.662109375q0,3.369140625-0.5859375,5.712890625q13.623046875-9.375,28.125-18.310546875q6.4453125-3.955078125,14.208984375-9.66796875q1.318359375-0.87890625,1.8310546875-3.80859375t1.6845703125-3.955078125q-0.29296875-0.5859375-0.29296875-1.7578125q0-0.87890625,0.3662109375-1.611328125t1.2451171875-1.3916015625t1.3916015625-1.025390625t1.6845703125-0.9521484375t1.318359375-0.732421875q2.490234375-1.904296875,4.248046875-1.904296875q0.87890625,0,1.46484375,0.29296875q0.87890625-0.146484375,2.2705078125-1.0986328125t1.9775390625-1.2451171875t1.46484375-0.29296875q1.46484375,0,2.9296875,1.46484375q0.732421875-0.146484375,1.5380859375-0.732421875t1.8310546875-1.5380859375t1.46484375-1.2451171875q0.732421875-0.732421875,2.4169921875-2.2705078125t2.4169921875-2.2705078125t0.9521484375-1.46484375t0.29296875-1.7578125t0.2197265625-1.904296875z M123.92578125,270.947265625q6.591796875-4.541015625,19.62890625-14.1357421875t19.62890625-14.1357421875q-11.71875,6.73828125-20.361328125,12.3046875q-4.98046875,2.9296875-12.890625,8.349609375q-6.15234375,3.076171875-6.591796875,4.248046875q0.5859375,1.7578125,0.5859375,3.369140625z M123.6328125,256.4453125q0.29296875-0.29296875,0.29296875-0.5859375q-0.29296875,0.29296875-0.29296875,0.5859375z M141.357421875,251.611328125l1.7578125-1.171875q0-0.146484375-1.0986328125,0.5859375t-2.2705078125,1.46484375l-1.171875,0.732421875q0.732421875-0.439453125,2.783203125-1.611328125q2.05078125-1.318359375,6.8115234375-3.955078125t8.2763671875-4.833984375t6.15234375-4.6875q-3.662109375,1.171875-15.234375,8.203125q-2.63671875,1.611328125-7.6904296875,4.9072265625t-5.6396484375,3.7353515625q-0.29296875,0.146484375-3.22265625,1.904296875t-5.2734375,3.369140625t-2.197265625,2.197265625q5.56640625-3.80859375,18.017578125-10.83984375z M123.92578125,284.130859375l0,0.87890625q3.80859375-3.076171875,12.8173828125-9.814453125t15.380859375-12.0849609375t11.6455078125-11.0595703125q-4.1015625,2.34375-12.3779296875,7.177734375t-12.5244140625,7.177734375q-7.763671875,4.248046875-12.890625,7.470703125q-2.05078125,1.171875-2.05078125,3.955078125q0,0.732421875,0.146484375,2.1240234375t0.146484375,1.9775390625q0,1.611328125-0.29296875,2.197265625z M167.431640625,252.34375l-1.46484375,1.7578125l1.46484375-1.7578125q-2.783203125,3.662109375-7.1044921875,7.6171875t-6.9580078125,6.0791015625t-9.0087890625,6.8115234375t-7.5439453125,5.56640625q3.369140625-2.05078125,10.1806640625-5.859375t10.1806640625-5.859375q1.318359375-0.732421875,4.1748046875-2.4169921875t4.1748046875-2.4169921875q0.5859375-0.5859375,1.2451171875-3.662109375t0.6591796875-4.98046875l0-0.87890625z M165.966796875,245.01953125l0,0.29296875l0-0.29296875q-0.146484375-0.29296875-0.439453125-0.5859375q-1.611328125,1.025390625-9.521484375,6.8115234375t-12.3046875,8.8623046875q2.197265625-1.171875,6.298828125-3.5888671875t6.298828125-3.5888671875q4.1015625-2.63671875,7.470703125-4.248046875q0.146484375-0.146484375,0.439453125-0.29296875q1.46484375-0.87890625,1.611328125-1.7578125l0-0.5859375z M165.966796875,231.8359375q0,0.439453125-2.5634765625,1.9775390625t-5.859375,3.2958984375t-3.5888671875,1.904296875q7.177734375-4.1015625,9.814453125-4.1015625q1.171875,0,1.7578125,0.29296875q0-2.05078125,0.439453125-3.369140625z M211.81640625,204.00390625l-0.5859375,0l0.5859375,0z M192.041015625,188.916015625q-1.318359375,0-2.2705078125,0.29296875t-1.46484375,0.5859375t-1.6845703125,1.2451171875t-2.05078125,1.5380859375q-7.177734375,5.712890625-13.330078125,10.25390625q-3.515625,2.783203125-10.3271484375,7.9833984375t-10.3271484375,7.8369140625q29.296875-18.310546875,41.748046875-24.609375q5.126953125-2.783203125,8.349609375-3.80859375q0.87890625-0.439453125,0.87890625-0.5859375q0-0.5859375-4.39453125-1.318359375q-1.171875,0.5859375-5.126953125,0.5859375z M162.01171875,188.916015625l0.29296875,0l-0.29296875,0q-0.87890625,0-2.34375-0.29296875t-2.197265625-0.29296875q-1.025390625,0-2.63671875,1.025390625q-2.490234375,2.05078125-7.6171875,5.712890625t-7.763671875,5.56640625q-7.6171875,5.712890625-13.76953125,11.1328125l-1.46484375,1.318359375q-1.611328125,1.171875-2.7099609375,2.2705078125t-0.9521484375,1.5380859375q7.177734375-4.248046875,21.826171875-14.0625t22.55859375-14.501953125l-0.29296875,0q-0.439453125,0-1.318359375,0.29296875t-1.318359375,0.29296875z M92.724609375,201.953125q1.318359375-2.197265625,4.0283203125-6.298828125t4.0283203125-6.298828125q-0.146484375,0.146484375-2.7099609375,1.3916015625t-3.955078125,2.2705078125t-1.6845703125,1.904296875q0.5859375,2.34375,0.5859375,3.955078125q0,0.5859375-0.146484375,1.611328125t-0.146484375,1.46484375z M107.958984375,187.744140625q-0.732421875,0.439453125-1.611328125,0.5859375t-1.3916015625,0.439453125t-1.0986328125,1.171875q-0.87890625,1.611328125-3.662109375,5.712890625q-2.05078125,3.369140625-5.712890625,8.642578125q2.783203125-1.7578125,11.71875-6.73828125t13.4765625-7.91015625q-1.611328125,0-2.63671875-1.025390625q-2.490234375,0.29296875-2.783203125,0.29296875q-0.87890625,0-3.1494140625-0.6591796875t-3.1494140625-0.5126953125z M129.345703125,204.8828125l-2.783203125,2.05078125q1.318359375-0.87890625,2.783203125-2.05078125q-3.515625,2.63671875-8.49609375,5.712890625q-1.7578125,1.46484375-1.7578125,1.7578125q0,0.5859375,0.29296875,1.46484375q1.318359375-1.46484375,2.9296875-2.9296875t3.8818359375-3.369140625t3.1494140625-2.63671875z M123.92578125,290.13671875l0,0.5859375q1.611328125-0.87890625,7.763671875-4.0283203125t8.935546875-4.6875t7.6171875-4.3212890625t8.5693359375-5.4931640625t6.9580078125-5.7861328125q-19.482421875,11.1328125-20.361328125,11.71875q-3.076171875,1.611328125-14.0625,8.056640625q-0.146484375,0.146484375-1.171875,0.5859375t-1.46484375,0.732421875t-1.171875,0.732421875t-1.0986328125,0.9521484375t-0.5126953125,0.9521484375z M139.453125,287.060546875q-9.08203125,5.2734375-11.42578125,6.591796875q-0.439453125,0.29296875-1.46484375,0.8056640625t-1.171875,0.732421875t-0.5859375,0.732421875t-0.5126953125,1.0986328125t-0.0732421875,1.7578125q2.490234375-1.904296875,7.5439453125-5.859375t7.6904296875-5.859375z M124.21875,342.87109375l0,1.171875q12.890625-8.203125,26.07421875-17.724609375q1.904296875-1.171875,5.2734375-3.5888671875t5.2734375-3.5888671875q0.29296875-0.146484375,1.3916015625-0.9521484375t1.6845703125-1.318359375t1.171875-1.318359375t0.439453125-1.5380859375q-16.11328125,9.66796875-24.169921875,14.208984375q-2.490234375,1.318359375-7.2509765625,4.1748046875t-7.2509765625,4.1748046875q-2.63671875,1.611328125-2.63671875,2.783203125l0,2.05078125l0,1.46484375z M100.1953125,365.72265625l-6.298828125,0l-2.05078125,0q0.5859375,2.34375,0.5859375,3.80859375q0,2.783203125-0.5859375,5.712890625q6.298828125-3.22265625,14.35546875-9.228515625q-0.29296875,0-0.732421875,0.146484375t-0.732421875,0.146484375q-0.732421875,0-2.2705078125-0.29296875t-2.2705078125-0.29296875z M91.259765625,383.740234375l0.29296875,0l-0.29296875,0q0.5859375-0.29296875,2.9296875-0.29296875q2.197265625,0,2.783203125,0.5859375q0.732421875-1.46484375,1.171875-1.904296875q1.171875-1.46484375,3.515625-3.80859375q4.248046875-4.248046875,15.087890625-12.59765625q19.921875-15.380859375,48.486328125-34.5703125q-2.34375,0.439453125-4.3212890625,1.3916015625t-5.4931640625,3.5888671875t-3.662109375,2.783203125q-1.025390625,0.5859375-10.693359375,7.6171875q-1.611328125,1.025390625-7.5439453125,4.248046875t-9.0087890625,5.56640625q-1.318359375,0.87890625-4.541015625,3.955078125t-5.419921875,4.248046875q-5.419921875,2.63671875-6.884765625,3.80859375q-0.87890625,0.5859375-2.7099609375,1.8310546875t-2.7099609375,1.8310546875q-6.73828125,4.6875-9.814453125,6.298828125q-1.171875,0.87890625-1.171875,5.419921875z M199.21875,366.015625l-3.662109375,2.05078125q0.5859375,0,3.662109375-2.05078125q-8.349609375,4.541015625-26.3671875,15.8203125q0.5859375-0.146484375,2.490234375-0.29296875t2.9296875-0.87890625q1.318359375-0.87890625,3.8818359375-2.7099609375t3.8818359375-2.7099609375q8.349609375-5.419921875,13.18359375-9.228515625z M198.6328125,383.447265625l-0.29296875,0l0.29296875,0q0.5859375-0.29296875,1.0986328125-0.87890625t1.025390625-1.5380859375t0.8056640625-1.2451171875q0.5859375-0.87890625,4.541015625-4.833984375q1.904296875-2.197265625,5.712890625-5.7861328125t4.833984375-4.6142578125q-0.87890625-0.5859375-4.0283203125,1.171875t-7.32421875,4.7607421875t-4.3212890625,3.0029296875q-11.71875,7.32421875-16.11328125,10.25390625q1.025390625,0,2.783203125-0.29296875t2.783203125-0.29296875q1.7578125,0.5859375,3.369140625,0.5859375l0.5859375,0q1.171875,0,1.46484375,0.29296875q0.87890625-0.5859375,2.783203125-0.5859375z M222.36328125,383.740234375q0.439453125-0.146484375,2.2705078125-0.3662109375t2.7099609375-0.9521484375q0.732421875-0.5859375,2.1240234375-1.611328125t2.1240234375-1.611328125q5.419921875-3.955078125,11.42578125-7.470703125q22.412109375-13.916015625,28.41796875-18.017578125q-29.00390625,17.87109375-50.390625,30.029296875l1.318359375,0z M240.966796875,382.71484375q0.29296875,0,0.732421875-0.3662109375t0.439453125-0.5126953125q-0.29296875,0.29296875-1.171875,0.87890625q2.197265625,0.732421875,2.34375,0.732421875q0.439453125,0,1.46484375-1.025390625q3.22265625-3.662109375,7.177734375-6.298828125q6.298828125-5.126953125,20.80078125-14.94140625q-4.98046875,2.783203125-10.25390625,6.3720703125t-11.71875,8.203125t-9.814453125,6.9580078125z M260.15625,383.154296875l0.29296875-0.439453125l-0.29296875,0.439453125q0.439453125-0.439453125,1.318359375-0.8056640625t1.318359375-0.8056640625t4.833984375-4.1015625q3.955078125-3.955078125,8.349609375-7.91015625q-6.884765625,3.955078125-21.533203125,13.18359375l0.87890625,0q0.732421875,0,2.490234375,0.2197265625t2.34375,0.2197265625z M279.052734375,380.37109375l0.29296875-0.29296875l-0.5859375,0.5859375l0.29296875-0.29296875q2.05078125-1.171875,2.490234375-1.7578125t0.439453125-2.490234375q-3.662109375,3.662109375-5.419921875,5.712890625q0.439453125-0.29296875,1.2451171875-0.732421875t1.2451171875-0.732421875z M536.0947265625,244.43359375l0.29296875,0l-0.29296875-0.29296875l0,0.29296875q0,0.146484375,0.146484375,0.29296875t0.146484375,0.29296875q0,1.318359375-4.6875,3.662109375q0.29296875-0.29296875,1.171875-0.29296875q1.025390625,0,1.8310546875,0.87890625t0.8056640625,1.7578125q0,1.46484375-1.171875,1.904296875q-2.783203125,2.05078125-3.22265625,4.1015625q0.87890625-0.87890625,2.9296875-0.87890625q1.171875,0,1.171875,0.87890625q0,0.5859375-0.29296875,0.87890625q-0.146484375,0.439453125-1.9775390625,1.6845703125t-1.8310546875,1.6845703125q0.5859375,1.7578125,0.5859375,2.34375q0,2.197265625-1.8310546875,3.662109375t-4.4677734375,1.46484375l-1.025390625,0q-0.29296875,0-0.732421875-0.146484375t-0.732421875-0.146484375q-0.87890625,0-2.9296875,0.29296875t-3.076171875,0.29296875l-0.87890625,0l-0.87890625,0q-0.439453125,0-3.955078125,1.171875l-0.5859375,0q-1.46484375,0-1.46484375-1.46484375q0-0.29296875,0.5859375-0.87890625q-0.146484375,0-0.439453125-0.146484375t-0.439453125-0.146484375q-0.5859375,0-1.904296875,0.439453125t-1.7578125,0.439453125q-0.732421875,0-1.8310546875-0.29296875t-1.6845703125-0.29296875l-1.7578125,0.5859375q-1.7578125,0.87890625-2.783203125,0.87890625q-0.87890625,0-1.171875-0.5859375q-0.29296875-0.29296875-0.29296875-0.87890625t1.025390625-1.171875t1.025390625-0.87890625l0-0.29296875q-0.29296875-0.29296875-1.171875-3.076171875q-0.146484375-0.146484375-0.8056640625-0.732421875t-0.6591796875-1.025390625q0-0.29296875,0.87890625-1.171875q2.05078125-1.611328125,2.05078125-3.076171875q0-0.5859375-0.29296875-1.6845703125t-0.29296875-1.8310546875q-0.5859375,0.29296875-1.171875,0.29296875q-1.171875,0-1.171875-1.171875q0-2.197265625,1.7578125-3.076171875q0-0.29296875-0.5859375-2.2705078125t-0.5859375-2.8564453125q0-3.369140625-1.7578125-6.298828125q-1.171875,0.5859375-2.197265625,0.5859375q-1.46484375,0-1.46484375-0.87890625l0.5859375-1.171875q-1.7578125-0.29296875-1.7578125-1.171875q0-0.732421875,1.2451171875-2.34375t1.0986328125-1.904296875q-0.87890625,0.87890625-2.34375,0.87890625t-1.46484375-1.171875l0-0.29296875q0-0.87890625,1.0986328125-2.197265625t0.9521484375-1.7578125q-0.439453125-1.025390625-1.904296875-2.34375t-1.7578125-1.7578125q-1.171875-1.171875-2.05078125-2.490234375q-0.29296875-0.29296875-0.87890625-0.29296875q-0.439453125,0-1.2451171875,0.29296875t-1.2451171875,0.29296875q-0.87890625,0-1.171875-0.29296875t-0.439453125-0.9521484375t-0.2197265625-1.025390625t-0.5126953125-0.3662109375q-0.87890625,0-2.1240234375-0.5126953125t-1.8310546875-0.6591796875q-4.98046875,0-9.814453125-1.46484375q-0.29296875,0.146484375-1.8310546875,0.9521484375t-2.197265625,1.5380859375t-0.8056640625,1.611328125q0.5859375,1.7578125,0.5859375,3.662109375q0,1.46484375-0.29296875,2.05078125q-0.29296875,0.87890625-0.29296875,3.662109375q0,2.34375-0.5859375,3.515625q-0.29296875,0.5859375-0.29296875,2.783203125q0,3.662109375,0.5859375,6.591796875q0.5859375,5.2734375,0.5859375,8.349609375q0,2.05078125-0.146484375,5.859375t-0.146484375,5.56640625q0.87890625,5.2734375,0.87890625,6.005859375q0,0.29296875-0.146484375,0.87890625t-0.146484375,0.87890625q0.87890625,2.197265625,0.87890625,4.833984375q0,0.732421875-0.146484375,2.2705078125t-0.146484375,2.2705078125q0,0.439453125,0.146484375,1.5380859375t0.146484375,1.6845703125q0,3.369140625-0.87890625,6.005859375q0.29296875,0.29296875,0.29296875,1.46484375q0,0.439453125-0.146484375,1.6845703125t-0.146484375,1.6845703125q0,0.146484375-0.146484375,0.87890625t-0.146484375,0.87890625l0.29296875,0.5859375q0.29296875,0,0.87890625,0.87890625l0.29296875,0.732421875q0,0.5859375-1.46484375,2.05078125l0,1.7578125l0,4.248046875l0,1.7578125q-0.29296875,0.87890625-0.29296875,2.490234375q0,0.87890625,0.146484375,2.8564453125t0.146484375,3.0029296875l0,1.318359375q0.5859375-0.29296875,1.7578125-0.29296875q3.369140625,0,3.369140625,2.05078125q0,1.318359375-1.7578125,2.63671875q-0.29296875,0.29296875-1.025390625,0.8056640625t-1.171875,0.8056640625t-0.87890625,0.87890625t-0.5859375,1.171875l0,1.46484375q0,1.171875-0.29296875,1.7578125q0,0.29296875-0.146484375,1.0986328125t-0.146484375,1.0986328125q0,0.5859375,0.5859375,0.5859375q1.46484375,0.439453125,1.46484375,2.05078125l0,0.5859375q-0.146484375,0.732421875-0.732421875,1.8310546875t-0.732421875,1.8310546875q0.146484375,0.732421875,0.732421875,1.46484375t0.732421875,1.171875q0.29296875,0.29296875,0.29296875,1.318359375q0,1.171875-1.171875,2.9296875l0,3.076171875l0,1.7578125q0,2.34375,0.5859375,2.9296875q0.439453125,0.732421875,0.8056640625,2.7099609375t0.9521484375,3.076171875t1.904296875,1.0986328125q0.87890625,0,1.46484375-0.29296875t1.171875-0.29296875q0.732421875,0,1.7578125,1.0986328125t2.197265625,1.0986328125q0.439453125,0,5.712890625,0.87890625l0.87890625,0q0.5859375,0,2.05078125-0.146484375t2.197265625-0.146484375q1.171875,0,1.7578125,0.29296875q2.490234375-1.904296875,5.419921875-1.904296875q0.5859375,0,2.05078125,0.732421875q0.5859375,0.439453125,1.9775390625,0.8056640625t2.1240234375,1.0986328125t0.732421875,2.490234375q0.5859375,1.7578125,0.5859375,7.177734375q0.29296875,1.171875,0.29296875,3.369140625q0,3.662109375-1.171875,8.349609375q0.29296875-0.29296875,0.87890625-0.29296875q1.025390625,0,1.6845703125,0.87890625t0.6591796875,1.904296875q0,1.46484375-1.46484375,1.46484375l-0.5859375,0l-0.87890625,0q-0.29296875,0-0.439453125,0.0732421875t-0.2197265625,0.2197265625l-0.29296875,0.5859375t-0.5126953125,0.87890625q0,0.146484375-0.8056640625,0.9521484375t-0.8056640625,0.9521484375q0.439453125-0.146484375,0.732421875-0.439453125q-6.591796875,2.490234375-9.08203125,2.490234375l-1.46484375,0q-1.904296875,0-2.490234375-0.5859375q-1.171875,0.5859375-1.7578125,0.5859375q-0.146484375,0-0.5859375-0.146484375t-0.5859375-0.146484375q-0.5859375,0.29296875-1.171875,0.29296875t-1.611328125-0.439453125t-1.46484375-0.439453125q-0.29296875,0.29296875-0.5859375,0.29296875q-0.5859375,0-1.5380859375,0.29296875t-1.6845703125,0.29296875l-0.5859375,0q-0.29296875,0-1.025390625-0.29296875t-1.171875-0.29296875q-0.5859375,0.87890625-2.34375,1.46484375q-1.46484375,0-1.46484375-1.7578125l-1.611328125,0q-3.515625,0-4.39453125,0.29296875q-0.5859375,0.29296875-1.904296875,0.29296875l-2.63671875,0l-1.171875,0q-0.87890625,0.5859375-2.783203125,0.5859375q-1.7578125,0-4.6875-0.5859375q-0.439453125,0.146484375-1.8310546875,0.439453125t-1.8310546875,0.439453125l-0.87890625,0q-0.5859375,0-1.7578125-0.5859375q-0.5859375,0.5859375-1.904296875,0.5859375q-0.5859375,0-2.1240234375,0.146484375t-2.2705078125,0.146484375q-2.490234375,0-3.369140625-0.87890625l-0.87890625,0q-0.87890625,0-2.490234375-0.29296875t-2.34375-0.29296875q-0.87890625,0-3.22265625-0.5859375q-0.146484375,0-1.025390625,0.439453125t-1.46484375,0.439453125t-1.171875-0.5859375q-1.318359375,0.87890625-4.541015625,0.87890625q-3.076171875,0-3.80859375-1.171875q-2.34375,1.7578125-4.248046875,1.7578125q-0.732421875,0-1.46484375-0.29296875t-0.87890625-0.29296875q-0.732421875,0-1.318359375,0.29296875l-0.5859375,0q-0.29296875,0-0.9521484375-0.29296875t-1.0986328125-0.29296875q-0.29296875,0.29296875-1.46484375,0.29296875q-2.197265625,0-3.369140625-0.5859375q-1.171875,0.5859375-3.80859375,0.5859375q-1.904296875,0-3.076171875-0.29296875q-0.5859375,0.29296875-1.7578125,0.29296875l-3.076171875,0l-1.46484375,0q-3.515625,0.87890625-5.126953125,0.87890625q-4.541015625,0-6.005859375-2.63671875q-1.46484375-2.490234375-1.46484375-9.08203125q0-2.9296875,0.29296875-3.80859375q-0.5859375,0.29296875-1.171875,0.29296875t-0.5859375-0.732421875t0.87890625-2.490234375l0.87890625-1.611328125q0-5.2734375,1.171875-6.884765625q-0.5859375-1.171875-0.5859375-1.904296875q0-1.7578125,1.8310546875-2.9296875t4.1748046875-1.171875q2.490234375,0,3.955078125,1.46484375q0.29296875-0.146484375,1.904296875-1.318359375t2.63671875-1.025390625q1.171875,0,1.171875,1.46484375l0.5859375,0q0.5859375,0,0.87890625,0.29296875l0.87890625,0q0.732421875,0,2.4169921875-0.29296875t2.4169921875-0.29296875l0.5859375,0q0.87890625,0.146484375,2.2705078125-0.87890625t1.9775390625-1.025390625q0.732421875,0,1.171875,0.439453125q0.146484375-0.146484375,0.8056640625-0.5859375t0.9521484375-0.439453125q2.197265625-2.783203125,4.248046875-3.80859375q0-2.05078125,0.87890625-3.369140625q1.171875-1.611328125,1.171875-3.80859375q0-1.171875-0.29296875-3.662109375t-0.29296875-3.662109375q0-1.46484375,0.29296875-2.34375l0-2.9296875l0-1.318359375l-1.171875-4.1015625q0.146484375-0.732421875,0.5126953125-1.171875t0.3662109375-1.025390625l0-2.34375q-0.87890625-2.63671875-0.87890625-7.470703125q0-3.80859375,0.87890625-6.005859375q0-0.29296875,0.146484375-0.732421875t0.146484375-0.732421875q0-0.732421875-0.29296875-2.2705078125t-0.29296875-2.2705078125l0-0.87890625q-0.29296875-0.5859375-0.29296875-2.490234375q0-2.63671875,0.5859375-4.98046875l-0.5859375,0.29296875q-1.46484375,0-1.46484375-2.490234375q0-0.87890625,0.29296875-1.171875q0.29296875-0.439453125,0.9521484375-1.318359375t1.025390625-1.611328125t0.3662109375-1.318359375q0-0.439453125-0.146484375-1.3916015625t-0.146484375-1.2451171875l0-1.46484375q0-1.904296875-0.5859375-1.904296875q-1.46484375-0.439453125-1.46484375-1.7578125l0-0.29296875q0-0.29296875,0.732421875-0.9521484375t0.732421875-0.8056640625l0-2.490234375q-0.29296875-0.5859375-0.29296875-3.515625q0-1.904296875,0.29296875-2.490234375q-1.171875-2.34375-1.171875-2.63671875t0.5859375-0.87890625q0-0.29296875,0.5859375-0.5859375l0.5859375-0.29296875q0.87890625-2.197265625,0.87890625-4.248046875q0-0.87890625-0.146484375-2.63671875t-0.146484375-2.490234375q-0.29296875-1.46484375-0.29296875-4.541015625l0-1.171875l0-2.9296875q0-0.146484375-0.6591796875-0.6591796875t-0.8056640625-0.8056640625l0-0.732421875q0-1.318359375,2.05078125-2.63671875q0-1.46484375,0.29296875-2.05078125q-0.87890625-0.87890625-0.87890625-3.369140625l0-0.5859375q-0.29296875-0.732421875-0.5859375-2.34375t-0.29296875-1.904296875l0-1.7578125q0-1.171875-0.29296875-1.7578125q-1.46484375-0.439453125-1.46484375-1.7578125l0-0.29296875q0.146484375-0.5859375,0.732421875-1.2451171875t0.732421875-1.2451171875l0-3.22265625q0-2.197265625,0.5859375-5.126953125q-0.5859375,0.29296875-3.369140625,0.29296875q-0.439453125,0-1.8310546875,0.146484375t-1.9775390625,0.146484375l-0.87890625,0q-1.46484375,0.29296875-2.63671875,0.87890625t-2.4169921875,1.5380859375t-2.1240234375,1.3916015625q-6.591796875,3.662109375-10.25390625,3.662109375q0.439453125,2.197265625-2.783203125,4.541015625q-2.34375,1.171875-3.955078125,5.56640625t-1.904296875,4.833984375q-0.146484375,0.87890625-1.025390625,4.6142578125t-0.87890625,5.9326171875l0,1.171875q0.5859375-0.29296875,1.171875-0.29296875q0.732421875,0,0.732421875,0.5859375t-0.5859375,1.5380859375t-1.171875,1.6845703125l-0.439453125,0.732421875q0.439453125,2.05078125,0.87890625,2.63671875q0.29296875,0.29296875,0.29296875,1.025390625q0,0.5859375-0.87890625,1.46484375q-0.5859375,0.439453125-0.8056640625,1.0986328125t-0.2197265625,1.6845703125t-0.146484375,1.46484375q-0.146484375,0.732421875-0.2197265625,1.2451171875t-0.29296875,0.9521484375t-0.3662109375,0.5859375t-0.6591796875,0.5859375t-0.8056640625,0.732421875q-2.197265625,2.197265625-4.833984375,2.197265625q-0.87890625,0-2.490234375-0.3662109375t-2.34375-0.3662109375q-0.439453125-0.146484375-2.783203125-0.5859375t-2.63671875-0.5859375q-0.29296875,0-1.025390625,0.146484375t-1.025390625,0.146484375q-1.46484375,0-1.46484375-0.87890625q-1.7578125,0.87890625-2.197265625,0.87890625q-0.87890625,0-1.171875-0.5859375q-0.29296875-0.29296875-1.46484375-0.29296875l-1.7578125,0q-0.732421875,0.146484375-2.34375,0.87890625t-2.490234375,0.87890625q-3.076171875,0-3.076171875-2.34375l0-0.5859375q0.732421875-2.63671875,1.318359375-3.955078125l0-0.87890625q0-1.171875,0.29296875-1.46484375q-0.5859375-0.87890625-0.5859375-5.712890625l0-3.955078125q-0.439453125-1.7578125-0.439453125-4.1015625q0-3.076171875-0.29296875-4.248046875q-0.87890625,0.5859375-1.7578125,0.5859375t-0.87890625-1.171875q0-2.490234375,2.05078125-4.541015625l0-2.63671875q0-2.783203125,0.5859375-3.955078125q0.146484375-0.5859375,0.29296875-1.904296875t0.29296875-2.490234375t0.439453125-1.904296875q0-0.5859375-0.146484375-2.34375t-0.146484375-2.490234375l0-1.171875l0-2.05078125l0-3.662109375q0-4.833984375,0.87890625-6.884765625q-1.318359375-6.591796875-1.611328125-9.521484375q-0.87890625,0.87890625-1.7578125,0.87890625q-1.171875,0-1.171875-1.46484375q0-0.87890625,0.87890625-2.197265625q1.611328125-1.611328125,2.34375-3.80859375l0-2.490234375l0-0.29296875l0-0.87890625q0-1.7578125,1.9775390625-2.8564453125t4.3212890625-1.0986328125q0.29296875,0,0.9521484375,0.146484375t0.9521484375,0.146484375q1.025390625-0.146484375,5.712890625-0.6591796875t7.177734375-0.5126953125l2.34375,0q5.2734375,0.5859375,7.763671875,0.5859375q3.80859375,0,7.32421875-1.171875q0.29296875-0.29296875,1.171875-0.29296875t2.5634765625,0.5859375t2.5634765625,0.5859375q1.318359375,0.146484375,3.662109375,0.5859375t3.22265625,0.5859375l2.05078125,0q1.318359375,0,1.7578125,0.439453125q0.87890625-0.439453125,1.904296875-0.439453125l0.5859375,0q1.7578125-0.5859375,3.80859375-0.5859375q0.87890625-0.87890625,3.076171875-0.87890625l0.5859375,0q0.87890625,0.29296875,2.63671875,0.29296875l3.369140625,0l1.46484375,0q0.732421875,0,3.369140625,0.87890625q0.732421875,0,2.197265625,0.3662109375t2.197265625,0.3662109375q0.87890625,0,2.490234375-1.025390625q1.171875-1.171875,3.515625-1.171875q1.025390625,0,1.025390625,0.5859375q0,0.29296875-0.439453125,1.171875q0.29296875-0.29296875,1.318359375-0.29296875q0.439453125,0,1.46484375,0.146484375t1.46484375,0.146484375l0.87890625,0q0.5859375-0.29296875,1.904296875-0.29296875q1.611328125,0,3.80859375,0.732421875q0.732421875-0.732421875,2.197265625-0.732421875l2.34375,0l1.171875,0l1.171875,0l2.783203125,0q3.369140625,0,5.419921875-0.5859375q0.732421875-0.146484375,2.197265625-1.025390625t2.490234375-0.732421875q2.490234375,0,5.419921875,1.46484375l1.171875,0l2.197265625,0l1.171875,0q1.904296875,0,4.248046875,0.5859375q1.171875-0.5859375,3.22265625-0.5859375l0.87890625,0q0.29296875,0.29296875,1.171875,0.29296875q0.439453125,0,1.318359375-0.439453125t1.46484375-0.439453125q0.146484375,0,0.439453125,0.146484375t0.439453125,0.146484375q0.5859375,0.29296875,1.7578125,0.29296875q0.5859375,0,1.904296875-0.146484375t2.05078125-0.146484375q0.732421875,0.146484375,1.171875,0.6591796875t0.87890625,0.5126953125q0.5859375,0,1.171875-0.29296875q1.7578125-1.171875,3.369140625-1.171875q1.171875,0,1.7578125,0.5859375l1.904296875,0l2.9296875,0q2.197265625,0,3.369140625-0.29296875q1.7578125-0.5859375,2.9296875-0.5859375q1.904296875,0,5.419921875,0.87890625q0.87890625-0.29296875,2.63671875-0.29296875q1.171875,0,3.515625,0.29296875t3.369140625,0.29296875q1.171875-0.5859375,2.197265625-0.5859375q1.46484375,0,3.22265625,0.5859375q1.7578125-0.5859375,3.076171875-0.5859375q0.439453125,0,8.349609375,0.87890625q3.662109375,0,3.662109375,7.32421875q0,1.7578125-0.29296875,2.34375l0,4.833984375l0,2.34375q0.29296875,0.87890625,0.29296875,4.541015625l0,2.63671875q0,2.197265625-0.29296875,3.076171875q-0.5859375,1.46484375-0.5859375,6.005859375q0.5859375-0.29296875,1.46484375-0.29296875q1.171875,0,1.171875,1.171875q0,1.611328125-1.46484375,2.63671875q-1.171875,1.171875-1.171875,2.197265625l0,1.171875q0,0.87890625-0.29296875,1.7578125l0.5859375,0q1.46484375,0,1.46484375,1.171875l0,0.29296875q-0.439453125,1.46484375-1.7578125,1.904296875l0,1.7578125q0.87890625,2.197265625,0.87890625,5.419921875q0.29296875,0.5859375,0.29296875,2.34375q0,1.318359375-0.439453125,4.248046875t-0.439453125,4.1015625l2.9296875-1.46484375q0.87890625,0,1.171875,0.5859375z M506.5048828125,260.107421875q2.783203125-1.611328125,12.3046875-7.177734375q0.5859375-0.29296875,1.5380859375-0.8056640625t1.3916015625-0.732421875t1.0986328125-0.5859375t0.87890625-0.8056640625t0.5859375-0.9521484375t0.3662109375-1.2451171875l0-1.7578125q-0.146484375,0.439453125-1.2451171875,0.9521484375t-2.5634765625,1.025390625t-1.7578125,0.6591796875q-1.611328125,0.732421875-4.4677734375,2.490234375t-3.4423828125,2.05078125l-1.611328125,0.8056640625t-2.2705078125,1.171875t-1.7578125,1.318359375t-0.6591796875,1.3916015625q0.29296875,0.29296875,0.29296875,1.318359375l0,0.5859375q0,0.29296875,0.29296875,0.29296875l1.025390625,0z M525.4013671875,237.841796875l-0.29296875,0.29296875l0.29296875-0.29296875q-1.318359375,2.63671875-7.6171875,8.203125q0.29296875-0.146484375,1.318359375-0.732421875t2.197265625-1.025390625t1.904296875-0.439453125q1.025390625,0,1.46484375,1.171875q0.732421875-4.39453125,0.732421875-5.56640625l0-1.611328125z M525.4013671875,232.12890625l0,0.29296875l0-0.29296875q0-0.146484375-4.9072265625,3.22265625t-6.2255859375,4.39453125q8.056640625-6.005859375,10.107421875-6.005859375q0.732421875,0,1.318359375,0.5859375l0-0.5859375q0-0.146484375-0.0732421875-0.146484375t-0.0732421875-0.0732421875t-0.0732421875-0.439453125t-0.0732421875-0.9521484375z M497.1298828125,227.734375l0.29296875-0.29296875l-0.29296875,0.29296875q0.29296875-0.146484375,1.171875-0.8056640625t1.171875-0.8056640625q-0.146484375,0.146484375-0.732421875,0.3662109375t-1.0986328125,0.5126953125t-0.5126953125,0.732421875z M498.0087890625,220.849609375l1.904296875-1.611328125q-0.732421875,0-1.904296875,1.611328125q12.3046875-7.32421875,26.3671875-14.208984375q1.611328125-0.87890625,1.611328125-5.126953125q0-4.541015625-0.5859375-6.884765625q-1.318359375,1.318359375-6.6650390625,6.005859375t-7.6904296875,6.884765625t-6.2255859375,6.0791015625t-6.8115234375,7.2509765625z M524.6689453125,216.89453125l-0.29296875,0l0.29296875,0z M524.6689453125,226.416015625l0,0.439453125l0-0.439453125q0-0.29296875-0.29296875-0.5859375q-1.46484375,1.171875-4.4677734375,3.662109375t-4.4677734375,3.662109375l1.611328125-0.8056640625t1.9775390625-0.9521484375t1.8310546875-1.025390625t1.8310546875-1.2451171875t1.2451171875-1.2451171875t0.732421875-1.46484375z M515.7333984375,189.6484375l0.29296875,0.29296875l-0.29296875-0.29296875q-0.87890625,0.146484375-1.7578125,0.2197265625t-1.318359375,0.146484375t-1.0986328125,0.3662109375t-1.5380859375,1.025390625q-2.490234375,2.490234375-7.177734375,6.591796875q-12.158203125,9.66796875-16.845703125,14.35546875q0.732421875,0.29296875,1.025390625,0.732421875q0,0.146484375,0.146484375,0.146484375q0.439453125,0,1.318359375-0.5859375l2.63671875-1.7578125q0.87890625-0.5859375,2.5634765625-1.9775390625t2.5634765625-1.9775390625q1.025390625-0.732421875,5.0537109375-3.5888671875t6.3720703125-4.1748046875q9.521484375-7.177734375,15.8203125-9.814453125q-0.439453125-0.439453125-1.171875-0.439453125t-2.5634765625,0.5126953125t-2.5634765625,0.5126953125q-0.87890625,0-1.46484375-0.29296875z M486.2900390625,189.94140625l0.29296875,0l-0.29296875,0q-0.87890625-0.29296875-2.05078125-0.29296875q-0.87890625,0-1.46484375,0.5859375q-0.439453125,0.439453125-1.3916015625,1.171875t-1.3916015625,1.171875q-1.171875,0.732421875-3.5888671875,2.4169921875t-3.5888671875,2.4169921875q-6.15234375,4.248046875-17.431640625,11.1328125q0.5859375-0.29296875,1.611328125-0.29296875q1.171875,0,1.46484375,0.29296875q0.87890625-0.87890625,1.7578125-1.318359375q0.146484375,0,0.439453125-0.146484375t0.439453125-0.146484375q0.29296875,0,1.0986328125,0.29296875t1.0986328125,0.29296875l0.5859375-0.29296875q1.171875-0.5859375,2.05078125-0.5859375q2.05078125,0,2.783203125,1.171875q1.171875-0.29296875,3.515625-2.05078125q1.318359375-0.87890625,24.31640625-16.40625l-0.87890625,0q-0.439453125,0-1.6845703125,0.146484375t-1.6845703125,0.146484375q-1.171875,0-1.7578125-0.29296875l-0.5859375,0q-0.5859375,0-1.8310546875,0.29296875t-1.8310546875,0.29296875z M436.1923828125,307.12890625l3.955078125-2.34375q0-0.146484375-1.46484375,0.732421875t-2.490234375,1.611328125q2.05078125-1.171875,5.859375-3.4423828125t5.859375-3.4423828125q0.5859375-0.29296875,1.904296875-0.87890625t1.8310546875-0.9521484375t1.025390625-1.2451171875t0.3662109375-2.05078125q-1.904296875,2.34375-4.7607421875,4.3212890625t-6.5185546875,4.1748046875t-5.56640625,3.515625z M453.6240234375,349.169921875q0.146484375,0.29296875-1.5380859375,1.611328125t-4.248046875,3.076171875t-4.98046875,3.2958984375t-4.6875,3.0029296875t-2.5634765625,1.611328125q-8.203125,5.712890625-31.494140625,20.947265625q4.833984375-1.7578125,9.66796875-4.541015625t11.42578125-7.177734375t8.935546875-5.859375q9.375-6.298828125,15.966796875-11.42578125q0.29296875-0.146484375,0.8056640625-0.5126953125t0.732421875-0.439453125t0.5859375-0.3662109375t0.5126953125-0.439453125t0.3662109375-0.439453125t0.29296875-0.5126953125t0.146484375-0.5126953125t0.0732421875-0.732421875l0-0.5859375z M453.0380859375,335.400390625l-3.369140625,1.7578125q0,0.146484375,0.87890625-0.2197265625t1.6845703125-0.87890625t0.8056640625-0.6591796875q-5.712890625,3.22265625-11.7919921875,7.177734375t-13.623046875,9.08203125t-11.4990234375,7.763671875q10.107421875-5.712890625,23.4375-14.501953125q0.146484375-0.146484375,4.3212890625-2.197265625t6.591796875-3.8818359375t2.5634765625-3.4423828125z M452.7451171875,322.509765625l-0.87890625,0.29296875l0.87890625-0.29296875q-0.87890625,0.5859375-2.7099609375,1.7578125t-2.7099609375,1.7578125q0.29296875-0.146484375,1.9775390625-0.732421875t2.5634765625-1.2451171875t0.87890625-1.5380859375z M452.4521484375,327.05078125l-2.783203125,1.7578125q2.783203125-1.46484375,2.783203125-1.7578125q-3.369140625,2.05078125-32.373046875,19.775390625q-0.29296875,0.146484375-6.591796875,4.6875q-3.80859375,1.904296875-4.541015625,3.369140625q-0.29296875,0.732421875-1.318359375,2.05078125t-1.025390625,2.490234375q0.29296875,1.611328125-2.783203125,4.6875q5.2734375-3.515625,15.6005859375-10.4736328125t15.6005859375-10.4736328125q2.34375-1.46484375,7.03125-4.4677734375t7.03125-4.4677734375t3.0029296875-2.1240234375t0.6591796875-2.1240234375q0-0.439453125-0.146484375-1.3916015625t-0.146484375-1.5380859375z M410.1181640625,345.654296875q4.98046875-4.248046875,14.7216796875-12.5244140625t14.7216796875-12.3779296875q-9.9609375,6.4453125-25.1953125,15.8203125q-0.29296875,0.29296875-1.3916015625,0.9521484375t-1.9775390625,1.2451171875t-0.87890625,1.171875q0.29296875,0.5859375,0.29296875,2.63671875q0,2.197265625-0.29296875,3.076171875z M410.1181640625,333.935546875l0,0.5859375q26.3671875-20.5078125,40.283203125-32.080078125q-17.87109375,9.9609375-25.927734375,14.94140625q-3.076171875,1.7578125-8.4228515625,5.0537109375t-6.2255859375,3.8818359375q0,1.171875,0.146484375,3.7353515625t0.146484375,3.8818359375z M426.9638671875,267.578125l-2.490234375,1.7578125q0,0.146484375,1.025390625-0.5126953125t1.9775390625-1.46484375t0.9521484375-0.9521484375q-0.29296875,0.29296875-1.46484375,1.171875q-7.177734375,5.712890625-12.890625,9.375q-0.439453125,0.29296875-1.5380859375,0.9521484375t-1.5380859375,1.0986328125t-0.9521484375,1.0986328125t-0.5126953125,1.5380859375q0,1.025390625,0.29296875,1.611328125q13.330078125-11.71875,38.671875-30.322265625q-7.03125,3.80859375-21.533203125,14.6484375z M452.7451171875,253.515625l-2.05078125,1.46484375q2.05078125-1.171875,2.05078125-1.46484375q-18.1640625,13.18359375-26.07421875,19.482421875q-1.611328125,1.318359375-5.6396484375,4.4677734375t-6.0791015625,5.0537109375q-0.439453125,0.29296875-1.2451171875,0.9521484375t-1.2451171875,1.0986328125l-1.025390625,1.025390625t-0.8056640625,1.2451171875t-0.2197265625,1.3916015625q4.833984375-2.783203125,14.2822265625-8.349609375t14.2822265625-8.349609375q0.439453125-0.146484375,2.490234375-1.0986328125t3.662109375-1.7578125t3.515625-1.904296875t3.076171875-2.2705078125t1.318359375-2.05078125q-0.5859375-2.34375-0.5859375-5.712890625q0-2.34375,0.29296875-3.22265625z M411.5830078125,290.72265625l1.904296875-0.87890625q-0.732421875,0.29296875-1.904296875,0.87890625q-1.46484375,1.171875-1.46484375,3.22265625l0,1.46484375q7.91015625-7.03125,16.552734375-13.4765625q-11.279296875,6.73828125-15.087890625,8.7890625z M409.5322265625,314.74609375l1.46484375-1.025390625l-1.46484375,1.025390625q2.63671875-1.904296875,8.7890625-6.15234375t10.693359375-7.5439453125t8.49609375-6.5185546875q1.904296875-1.318359375,5.419921875-4.1748046875t5.2734375-4.1748046875q0.439453125-0.439453125,2.05078125-1.6845703125t2.63671875-2.34375t1.025390625-1.9775390625q-14.94140625,11.1328125-30.029296875,20.361328125q-7.6171875,4.6875-13.18359375,6.884765625q-1.46484375,0.29296875-1.46484375,4.248046875q0,0.732421875,0.146484375,1.7578125t0.146484375,1.318359375z M453.6240234375,285.595703125q-6.884765625,5.419921875-8.349609375,6.591796875q3.515625-1.7578125,6.005859375-1.7578125l0.5859375,0q1.46484375-0.5859375,1.46484375-2.783203125q0-1.46484375,0.29296875-2.05078125z M444.1025390625,297.900390625l-1.904296875,1.171875q1.318359375-0.5859375,1.904296875-1.171875q-2.05078125,1.171875-5.9326171875,3.5888671875t-5.7861328125,3.5888671875q5.2734375-2.63671875,11.71875-7.177734375z M433.5556640625,291.015625l1.7578125-1.171875l-6.298828125,4.1015625q1.171875-0.87890625,4.541015625-2.9296875q11.279296875-7.470703125,20.361328125-14.501953125l0-4.6875q0-3.369140625-0.29296875-4.833984375q-12.01171875,7.470703125-30.322265625,21.240234375q-2.05078125,1.46484375-5.7861328125,4.6875t-4.9072265625,4.1015625q-0.87890625,0.732421875-1.3916015625,1.318359375t-0.8056640625,1.025390625t-0.439453125,1.0986328125t-0.2197265625,1.025390625t-0.146484375,1.46484375t-0.0732421875,1.8310546875q9.228515625-3.515625,24.0234375-13.76953125z M452.4521484375,235.205078125l0-0.29296875l0,0.29296875q-0.29296875-0.5859375-0.29296875-1.46484375q-1.7578125,1.171875-5.0537109375,3.5888671875t-4.9072265625,3.5888671875q4.98046875-2.490234375,6.591796875-2.490234375l0.87890625,0q1.904296875,0.439453125,1.904296875,2.197265625q0,0.87890625-0.5859375,2.05078125q-1.46484375,2.63671875-4.248046875,5.4931640625t-4.4677734375,4.3212890625t-6.005859375,4.7607421875t-5.0537109375,3.7353515625q1.318359375-0.87890625,4.6875-3.515625t5.4931640625-4.1748046875t5.2734375-3.076171875t5.7861328125-1.8310546875q0.5859375-2.34375,0.5859375-3.955078125q0-1.318359375-0.29296875-4.0283203125t-0.29296875-4.0283203125l0-1.171875z M411.2900390625,223.779296875l1.318359375-0.5859375q-0.439453125,0-1.318359375,0.5859375q-2.05078125,0.87890625-2.05078125,1.171875q2.197265625-1.025390625,6.0791015625-3.2958984375t5.3466796875-3.0029296875q-6.298828125,3.369140625-9.375,5.126953125z M474.2783203125,189.94140625l-1.7578125,0.87890625q0-0.146484375,1.7578125-0.87890625q-4.248046875,1.7578125-8.349609375,4.0283203125t-8.7158203125,5.2001953125t-7.5439453125,4.9072265625t-8.349609375,5.7861328125t-7.470703125,5.2734375q-12.3046875,7.91015625-19.189453125,12.890625q-0.5859375,0.29296875-1.8310546875,1.0986328125t-1.7578125,1.171875t-1.025390625,1.171875t-0.5126953125,1.6845703125q0,1.171875,0.29296875,2.05078125q11.1328125-9.228515625,35.2294921875-23.5107421875t34.3505859375-22.3388671875q-3.515625,0.87890625-3.80859375,0.87890625q-1.025390625,0-1.318359375-0.29296875z M422.1298828125,232.421875l3.369140625-1.7578125l-3.369140625,1.7578125q2.9296875-1.7578125,9.08203125-4.98046875l9.228515625-4.833984375q0.29296875-0.146484375,3.7353515625-1.9775390625t5.9326171875-3.515625t2.34375-2.5634765625q-5.859375,2.9296875-16.40625,9.4482421875t-13.916015625,8.4228515625z M431.5048828125,233.447265625l-0.29296875,0.29296875l0.29296875-0.29296875q-1.611328125,1.025390625-7.8369140625,5.0537109375t-9.3017578125,6.5185546875q8.349609375-4.6875,17.138671875-11.572265625z M450.6943359375,219.82421875q-1.611328125,1.171875-4.98046875,3.662109375t-4.98046875,3.662109375q6.15234375-4.248046875,9.66796875-5.712890625q2.197265625-1.46484375,2.34375-1.904296875l0-1.46484375q-1.171875,1.171875-2.05078125,1.7578125z M445.2744140625,215.13671875l1.7578125-1.318359375q-0.87890625,0.732421875-1.7578125,1.318359375q0.732421875-0.439453125,2.4169921875-1.318359375t3.0029296875-1.7578125t2.05078125-1.7578125q-1.46484375,0.87890625-4.1015625,2.63671875t-3.369140625,2.197265625z M453.9169921875,209.716796875l0-0.29296875l0.29296875,0l-0.29296875,0.29296875l0.5859375-0.5859375z M410.9970703125,242.67578125q0.87890625-0.439453125,0.87890625-0.5859375q-0.87890625,0.29296875-0.87890625,0.5859375q4.248046875-2.197265625,10.546875-6.591796875q-0.29296875,0.146484375-1.7578125,0.8056640625t-2.783203125,1.318359375t-2.783203125,1.46484375t-2.34375,1.611328125t-0.87890625,1.3916015625z M423.8876953125,243.84765625l-3.22265625,2.490234375q-0.29296875,0,4.833984375-3.369140625q-0.439453125,0.29296875-1.611328125,0.87890625q-8.642578125,5.126953125-9.814453125,8.7890625q0,0.29296875,0.29296875,0.29296875q0.87890625,0,2.7099609375-0.8056640625t1.8310546875-1.0986328125q6.4453125-3.515625,20.068359375-14.6484375q1.46484375-1.025390625,4.3212890625-3.1494140625t4.3212890625-3.1494140625q0.29296875-0.146484375,1.904296875-1.025390625t2.2705078125-1.611328125t0.6591796875-1.611328125q-2.63671875,1.7578125-13.037109375,7.9833984375t-15.52734375,10.0341796875z M449.0830078125,190.234375q-0.87890625,0-0.87890625,0.5859375q0.29296875,0,0.87890625-0.5859375q-1.025390625,0.146484375-1.904296875,0.5859375t-1.2451171875,0.6591796875t-1.46484375,1.2451171875t-1.3916015625,1.318359375q2.63671875-1.904296875,6.005859375-3.80859375z M338.1943359375,255.859375l0.29296875-0.29296875l-0.29296875,0.29296875q0-0.146484375,2.4169921875-2.34375t5.126953125-4.6142578125t3.1494140625-2.8564453125q2.197265625-1.904296875,6.298828125-5.6396484375t6.298828125-5.4931640625q-9.228515625,5.2734375-18.310546875,12.59765625q-1.611328125,1.171875-2.63671875,1.171875q-1.171875,0-1.171875-1.7578125q0-2.05078125,0.87890625-3.369140625q1.318359375-1.904296875,3.2958984375-3.955078125t3.1494140625-3.076171875t4.1015625-3.2958984375t3.515625-2.8564453125q2.197265625-1.318359375,6.005859375-4.1015625t4.248046875-3.076171875q0.5859375-0.439453125,3.076171875-1.904296875t4.3212890625-2.783203125t2.1240234375-2.197265625q-24.609375,14.94140625-37.20703125,22.412109375q0,0.5859375,0.5126953125,3.5888671875t0.5126953125,4.6142578125l0,1.171875q0.5859375,2.9296875,0.5859375,5.712890625q0,1.46484375-0.29296875,2.05078125z M372.6181640625,191.9921875l-1.46484375,0.87890625l1.7578125-1.171875l-0.29296875,0.29296875q-4.541015625,2.9296875-15.234375,9.228515625t-16.259765625,9.9609375q12.3046875-6.591796875,35.7421875-21.533203125l-0.29296875,0q-0.439453125,0-3.955078125,2.34375z M360.8994140625,202.83203125l-5.419921875,3.22265625l5.419921875-3.22265625q-10.107421875,6.298828125-19.189453125,10.986328125l-1.318359375,0.6591796875t-1.171875,0.732421875t-0.5126953125,0.732421875t-0.5126953125,1.2451171875q0,1.025390625,0.146484375,3.22265625t0.146484375,3.076171875q9.375-8.349609375,27.5390625-23.73046875q-2.05078125,1.025390625-5.126953125,3.076171875z M336.8759765625,235.791015625l1.025390625-0.5859375q-1.025390625,0.29296875-1.025390625,0.5859375q0.5859375-0.439453125,4.3212890625-2.783203125t5.9326171875-3.515625q-0.29296875,0.146484375-1.904296875,0.8056640625t-2.5634765625,1.0986328125t-2.34375,1.171875t-2.2705078125,1.5380859375t-1.171875,1.6845703125z M338.4873046875,203.7109375q1.318359375-2.34375,4.1748046875-6.8115234375t4.1748046875-6.6650390625q-1.171875,0.29296875-5.3466796875,2.63671875t-4.3212890625,3.076171875q1.318359375,3.955078125,1.318359375,6.884765625l0,0.87890625z M381.4072265625,211.767578125q0.5859375,0,0.87890625-0.5859375q-0.146484375,0.146484375-0.439453125,0.29296875t-0.439453125,0.29296875z M414.3662109375,194.62890625l-3.076171875,1.904296875q2.490234375-1.611328125,3.076171875-1.904296875q-13.330078125,8.203125-26.3671875,16.259765625q13.330078125-7.763671875,26.3671875-16.259765625z M412.9013671875,204.296875q0,0.146484375,0.439453125-0.146484375t0.87890625-0.732421875l0.439453125-0.29296875q-0.5859375,0.29296875-1.7578125,1.171875q0,0.146484375,0.6591796875-0.2197265625t1.3916015625-0.87890625t0.87890625-0.6591796875q4.541015625-2.490234375,7.763671875-4.541015625q2.490234375-1.171875,6.9580078125-3.80859375t5.3466796875-3.076171875q-0.29296875,0.29296875-1.171875,0.29296875l-1.171875,0q-0.5859375,0-1.171875,0.29296875q-1.025390625,0.732421875-3.1494140625,2.1240234375t-3.1494140625,2.1240234375q-6.884765625,3.955078125-13.18359375,8.349609375z M408.6533203125,190.52734375q-1.025390625-0.146484375-2.783203125,0.9521484375t-3.80859375,2.8564453125t-2.783203125,2.197265625q-1.904296875,1.318359375-5.712890625,4.0283203125t-5.859375,4.0283203125q18.017578125-10.546875,23.583984375-13.4765625q-0.439453125,0-1.318359375-0.29296875t-1.318359375-0.29296875z M402.6474609375,189.35546875l-2.63671875,1.171875l2.63671875-1.171875q-2.34375,1.025390625-4.541015625,2.1240234375t-4.7607421875,2.490234375t-4.3212890625,2.34375t-4.6875,2.783203125t-4.1748046875,2.63671875t-4.541015625,3.0029296875t-4.1015625,2.7099609375t-4.541015625,3.0029296875l-4.1748046875,2.783203125q23.73046875-13.623046875,40.4296875-23.876953125l-0.5859375,0z M361.4853515625,239.013671875l0,0.439453125l0-0.439453125q-5.126953125,4.248046875-6.005859375,4.833984375q-1.318359375,1.171875-4.0283203125,3.5888671875t-4.0283203125,3.5888671875q-0.146484375,0.146484375-2.9296875,2.490234375t-4.4677734375,4.3212890625t-1.5380859375,3.1494140625q3.076171875,0.29296875,6.0791015625-0.9521484375t7.2509765625-4.1015625t5.56640625-3.5888671875q2.34375-1.318359375,2.34375-3.076171875q0-2.197265625,0.5859375-3.955078125l0-0.87890625q0-3.662109375,1.171875-5.419921875z M366.9052734375,224.951171875q0,0.29296875-6.005859375,4.248046875q-3.955078125,2.783203125-6.298828125,4.833984375q-6.298828125,4.541015625-10.107421875,8.935546875q9.9609375-7.763671875,16.40625-10.83984375q0.439453125-0.29296875,1.0986328125-0.5126953125t1.0986328125-0.439453125t0.87890625-0.5859375t0.5859375-0.8056640625l0-0.29296875q0-2.783203125,2.34375-4.541015625z M410.1181640625,212.939453125l0.29296875-0.29296875l-0.29296875,0.29296875l0,1.611328125q22.119140625-14.208984375,32.373046875-23.73046875q-3.076171875,1.7578125-9.375,5.2734375t-9.521484375,5.419921875q-2.05078125,1.025390625-5.9326171875,3.369140625t-5.7861328125,3.369140625q-0.29296875,0.29296875-1.171875,0.8056640625t-1.171875,0.6591796875q0.5859375,2.05078125,0.5859375,2.9296875l0,0.29296875z M386.0947265625,190.8203125l-0.29296875,0l0.29296875,0q-0.5859375,0.29296875-1.46484375,0.29296875q-0.439453125,0-1.171875-0.29296875t-1.171875-0.29296875q-1.025390625,0-1.611328125,0.5859375q-1.025390625,0.87890625-3.1494140625,2.5634765625t-3.1494140625,2.5634765625q-6.4453125,6.005859375-11.279296875,9.521484375q-1.318359375,1.025390625-9.1552734375,7.8369140625t-11.9384765625,10.4736328125q35.15625-24.609375,52.587890625-34.130859375q-0.146484375,0-1.611328125,0.439453125t-1.7578125,0.439453125l-1.7578125,0l-3.369140625,0z M353.7216796875,189.35546875q-0.29296875,0-0.29296875,0.29296875q0.29296875,0,0.29296875-0.29296875q-0.146484375,0-0.5126953125,0.146484375t-0.6591796875,0.146484375l-1.171875,0q-0.87890625,0-1.46484375,0.87890625q-0.5859375,1.025390625-1.8310546875,3.0029296875t-1.8310546875,3.0029296875q-1.025390625,1.611328125-3.0029296875,4.9072265625t-3.0029296875,4.9072265625q7.32421875-3.515625,28.564453125-16.69921875q-0.732421875-0.146484375-2.490234375,0.3662109375t-2.34375,0.5126953125q-0.87890625,0-1.171875-0.29296875q-0.5859375-0.29296875-2.197265625-0.29296875q-0.5859375,0-1.8310546875,0.146484375t-1.9775390625,0.146484375q-1.7578125,0-3.076171875-0.87890625z M409.2392578125,221.435546875q0-0.146484375,2.63671875-1.5380859375t5.6396484375-2.9296875t3.4423828125-1.8310546875q11.279296875-6.15234375,16.552734375-9.375q0.87890625-0.439453125,4.6875-2.7099609375t5.3466796875-3.22265625t4.4677734375-2.9296875t5.126953125-3.662109375t4.248046875-3.5888671875q-0.732421875-0.146484375-1.7578125,0.0732421875t-1.46484375,0.2197265625q-1.171875,0-1.7578125-0.5859375q-2.34375,0.439453125-7.32421875,4.1015625q-7.32421875,4.833984375-17.28515625,11.71875q-7.6171875,5.56640625-15.380859375,10.546875q-0.5859375,0.439453125-1.9775390625,1.2451171875t-2.1240234375,1.318359375t-1.611328125,1.3916015625t-1.46484375,1.7578125z M410.9970703125,259.814453125l0-0.29296875l0,0.29296875q0-0.29296875,6.298828125-4.541015625q-1.7578125,0.5859375-2.34375,0.5859375q-3.369140625,0-3.369140625-2.9296875q0-2.05078125,1.611328125-3.662109375q-0.439453125,0.146484375-0.87890625,0.2197265625t-0.6591796875,0.0732421875l-0.439453125,0t-0.3662109375,0.0732421875t-0.29296875,0.2197265625t-0.2197265625,0.439453125t-0.2197265625,0.732421875q0,0.29296875,0.146484375,1.46484375t0.146484375,1.611328125q0.5859375,2.34375,0.5859375,4.541015625l0,1.171875z M409.2392578125,273.583984375q0-0.87890625,16.259765625-11.71875q7.177734375-5.419921875,14.0625-11.42578125q0.5859375-0.5859375,2.2705078125-1.9775390625t2.7099609375-2.2705078125t2.197265625-2.2705078125t1.7578125-2.7099609375q-2.05078125,0.439453125-9.814453125,5.126953125q-5.419921875,3.369140625-16.259765625,10.693359375q-9.9609375,6.15234375-12.3046875,9.375q-0.29296875,0.87890625-0.439453125,2.1240234375t-0.2197265625,2.783203125t-0.2197265625,2.2705078125z M409.5322265625,321.630859375l0,0.87890625q2.34375-1.611328125,6.73828125-4.833984375t6.73828125-4.833984375q-1.611328125,0.732421875-5.6396484375,2.7099609375t-6.3720703125,3.0029296875q-1.46484375,0.732421875-1.46484375,1.7578125l0,1.318359375z M392.9794921875,364.84375q-1.171875,1.611328125-3.5888671875,2.9296875t-3.2958984375,2.34375q-5.126953125,5.2734375-10.693359375,10.25390625q4.39453125-1.318359375,8.5693359375-3.5888671875t10.400390625-6.3720703125t7.6904296875-4.98046875q-0.29296875,0.29296875-1.171875,0.29296875q-0.732421875,0-1.9775390625-0.6591796875t-1.9775390625-0.5126953125q-0.5859375,0.5859375-2.05078125,0.5859375q-1.318359375,0-1.904296875-0.29296875z M386.0947265625,382.71484375l0.5859375-0.29296875l-0.5859375,0.29296875q3.076171875-1.611328125,12.890625-8.349609375q-2.783203125,1.46484375-8.056640625,4.6875t-8.056640625,4.6875q0.5859375,0,1.611328125-0.5126953125t1.611328125-0.5126953125z M372.9111328125,378.61328125q1.318359375-1.171875,3.8818359375-3.5888671875t3.8818359375-3.5888671875q-4.1015625,2.490234375-7.177734375,4.1015625q-0.5859375,0.29296875-0.5859375,1.611328125l0,1.171875l0,0.29296875z M375.4013671875,383.447265625l0.29296875,0l-0.5859375,0l0.29296875,0l1.171875,0q1.318359375,0,3.22265625-1.904296875l-6.591796875,2.197265625l0.29296875,0q0.29296875,0,0.9521484375-0.146484375t0.9521484375-0.146484375z M397.5205078125,384.033203125q0.439453125,0,1.3916015625-0.732421875t2.197265625-1.8310546875t1.5380859375-1.3916015625q5.712890625-3.369140625,8.642578125-5.712890625q3.076171875-1.904296875,9.08203125-5.712890625t8.935546875-5.712890625q1.171875-0.87890625,8.2763671875-5.7861328125t10.6201171875-7.6904296875q5.126953125-3.80859375,5.126953125-4.541015625l0-4.39453125q-1.171875,0.29296875-2.9296875,1.46484375q0.87890625,0.439453125,0.87890625,0.87890625q0,1.318359375-3.22265625,3.2958984375t-4.6875,2.4169921875q-2.63671875,1.46484375-7.8369140625,4.4677734375t-7.6904296875,4.4677734375q-7.03125,4.1015625-19.2626953125,13.2568359375t-17.6513671875,12.6708984375q1.7578125,0.5859375,3.369140625,0.5859375l2.34375,0l0.87890625,0z M414.9521484375,382.71484375q0.29296875,0,1.025390625-0.5126953125t0.732421875-0.6591796875q-0.29296875,0.29296875-1.7578125,1.171875q1.318359375,0.439453125,2.34375,0.439453125q2.34375,0,5.126953125-1.3916015625t4.6142578125-2.783203125t4.833984375-4.0283203125t3.7353515625-3.22265625q1.7578125-1.171875,14.0625-10.546875q0.146484375-0.146484375,1.904296875-1.2451171875t2.8564453125-2.05078125t0.9521484375-1.5380859375q-2.9296875,1.171875-7.91015625,5.2001953125t-6.73828125,5.0537109375q-8.935546875,6.15234375-25.78125,16.11328125z M437.5107421875,384.326171875q0.439453125-0.146484375,1.025390625-0.5859375t1.0986328125-0.732421875t1.0986328125-0.29296875l1.46484375,0.732421875q0.732421875-0.732421875,2.2705078125-2.4169921875t2.2705078125-2.4169921875q2.34375-2.34375,6.73828125-7.177734375t6.73828125-7.32421875q-0.87890625-0.146484375-2.197265625,0.2197265625t-2.05078125,0.8056640625t-2.34375,1.46484375t-1.7578125,1.171875q-4.833984375,2.63671875-8.49609375,5.126953125q-13.623046875,8.349609375-17.578125,10.83984375q0.29296875,0.146484375,4.98046875,0.87890625l1.025390625,0l2.34375-0.5859375l0.5859375,0q0.29296875,0,0.87890625,0.29296875t0.87890625,0.29296875q0.146484375,0,0.5126953125-0.146484375t0.5126953125-0.146484375z M465.6357421875,382.71484375l-0.29296875,0l0.29296875,0l1.46484375,0q0.87890625,0,1.904296875-1.7578125q0.146484375-0.146484375,1.2451171875-1.5380859375t1.6845703125-2.2705078125q6.4453125-8.349609375,6.591796875-8.49609375q-4.1015625,2.63671875-12.6708984375,7.6171875t-12.8173828125,7.470703125q0.439453125-0.146484375,2.2705078125-0.5859375t2.8564453125-0.439453125l0.87890625,0q0.5859375,0,1.2451171875,0.2197265625t1.0986328125,0.2197265625l1.025390625,0q0.439453125-0.439453125,2.34375-0.439453125l0.87890625,0z M487.6083984375,379.78515625l0.29296875,0l0-0.29296875l-0.29296875,0.29296875l0.29296875,0.5859375q0,0.439453125-0.3662109375,1.2451171875t-0.3662109375,1.0986328125q0.439453125-0.146484375,0.8056640625-0.3662109375t0.5126953125-0.6591796875t0.2197265625-0.732421875t0.2197265625-1.025390625t0.146484375-1.025390625q-0.29296875,0.146484375-0.732421875,0.439453125t-0.732421875,0.439453125z M472.8134765625,390.91796875l0.29296875,0l-0.29296875,0l-0.87890625,0.5859375l2.05078125-1.171875q-0.29296875,0-1.171875,0.5859375z M487.9013671875,367.1875l0.29296875,0l-0.29296875,0q-4.39453125-0.439453125-7.6171875,3.955078125q-0.732421875,0.87890625-4.1015625,5.3466796875t-5.126953125,6.9580078125q1.171875,0.29296875,2.63671875-0.439453125t3.22265625-1.9775390625t2.490234375-1.5380859375q3.955078125-2.9296875,7.470703125-4.541015625q0.5859375-0.29296875,1.318359375-0.5859375t0.87890625-0.5126953125t0.3662109375-0.6591796875t0.2197265625-1.46484375q-0.29296875-1.171875-0.29296875-4.541015625l-1.46484375,0z M470.4697265625,366.015625l-0.5859375,0q-3.662109375,0-5.419921875-1.171875q-1.904296875,0.439453125-6.005859375,5.2734375q-0.29296875,0.29296875-3.662109375,3.80859375t-6.0791015625,6.591796875t-2.2705078125,3.515625q4.98046875-2.490234375,29.150390625-16.845703125q-0.5859375-0.439453125-1.46484375-0.6591796875t-2.05078125-0.29296875t-1.611328125-0.2197265625z M444.3955078125,368.65234375q1.7578125-0.87890625,4.833984375-2.7099609375t4.6875-2.7099609375q0.439453125-0.29296875,0.8056640625-0.5126953125t0.5859375-0.3662109375t0.5126953125-0.29296875t0.3662109375-0.2197265625t0.146484375-0.29296875t0.0732421875-0.3662109375l0-1.171875q-2.05078125,1.46484375-6.0791015625,4.39453125t-5.9326171875,4.248046875z M459.6298828125,318.84765625l0.29296875-0.29296875q-0.29296875,0-0.29296875,0.29296875q0.146484375-0.146484375,0.5859375-0.439453125t0.5859375-0.439453125q-1.171875,0-1.171875,0.87890625z M450.9873046875,320.01953125l-1.904296875,1.318359375q0.439453125-0.439453125,1.904296875-1.318359375q2.34375-1.611328125,2.34375-7.763671875q0-1.904296875-0.146484375-4.6875t-0.146484375-3.662109375q-20.654296875,16.552734375-29.443359375,23.4375q6.73828125-4.39453125,17.431640625-10.83984375q4.6875-3.369140625,7.470703125-3.955078125l0.5859375,0q1.611328125,0,1.611328125,1.46484375q0,1.025390625-0.5859375,1.611328125q-0.87890625,0.732421875-2.7099609375,2.197265625t-2.7099609375,2.197265625q-22.119140625,19.189453125-30.029296875,25.634765625q7.03125-3.955078125,19.1162109375-13.18359375t17.2119140625-12.451171875z M481.6025390625,210.888671875l0.29296875,0l-0.29296875,0q1.46484375,0.29296875,3.8818359375-1.5380859375t5.0537109375-4.541015625t3.369140625-3.2958984375q8.642578125-7.03125,13.76953125-11.865234375q-0.5859375-0.29296875-2.197265625-0.29296875t-3.4423828125,0.6591796875t-2.63671875,1.025390625t-3.369140625,2.05078125t-2.8564453125,1.8310546875q-6.591796875,4.248046875-19.189453125,13.330078125q1.46484375-0.146484375,3.955078125,1.171875t3.662109375,1.46484375z M489.3662109375,215.72265625q2.783203125,2.34375,4.833984375,5.419921875q8.49609375-10.986328125,29.296875-28.564453125q-1.7578125,0.732421875-10.25390625,6.5185546875t-16.11328125,11.2060546875z M500.7919921875,233.740234375q-0.87890625,0-0.87890625,1.171875q0,1.025390625,1.025390625,3.22265625t1.025390625,2.490234375q1.904296875-1.46484375,5.4931640625-4.541015625t5.3466796875-4.541015625q-6.73828125,4.541015625-9.08203125,5.126953125l-0.87890625,0q-2.63671875,0-2.63671875-1.46484375q0-0.87890625,0.5859375-1.46484375z M502.5498046875,244.43359375l0.5859375-0.29296875l-0.5859375,0.29296875q0.5859375-0.439453125,1.8310546875-1.318359375t1.8310546875-1.318359375q-0.146484375,0.146484375-1.2451171875,0.6591796875t-1.7578125,0.9521484375t-0.6591796875,1.025390625z M504.3076171875,252.63671875l0,0.5859375q12.01171875-9.08203125,16.845703125-14.501953125q-2.34375,1.318359375-6.8115234375,4.248046875t-6.6650390625,4.248046875q-0.439453125,0.29296875-1.2451171875,0.732421875t-1.318359375,0.6591796875t-0.87890625,0.732421875t-0.5126953125,1.0986328125q0.146484375,0.29296875,0.29296875,1.0986328125t0.29296875,1.0986328125z"/><path fill="#" d=""/></svg>
